<svg width="703" height="713" viewBox="0 0 703 713" fill="none" xmlns="http://www.w3.org/2000/svg">
<ellipse cx="351.5" cy="351" rx="351.5" ry="351" fill="#36BB93"/>
<ellipse cx="151.284" cy="349.228" rx="132.242" ry="126.532" fill="white"/>
<path d="M92.1273 425.11C92.1273 427.446 93.9851 429.34 96.2768 429.34H206.296C208.588 429.34 210.445 427.446 210.445 425.11V408.479H92.1273V425.11Z" fill="#36BB93"/>
<path d="M241.378 268.367C229.279 268.367 194.696 268.367 182.939 268.367C180.868 268.367 179.122 269.92 178.835 272.012C176.924 285.942 164.298 296.707 151.286 296.707C138.273 296.707 125.647 285.942 123.736 272.012C123.45 269.924 121.699 268.367 119.632 268.367C107.981 268.367 73.6709 268.367 61.1937 268.367C58.902 268.367 57.0442 270.261 57.0442 272.597V318.117C57.0442 320.454 58.902 322.348 61.1937 322.348H92.1266V396.365H210.445V322.348H241.378C243.67 322.348 245.527 320.454 245.527 318.117V272.597C245.527 270.261 243.67 268.367 241.378 268.367Z" fill="#36BB93"/>
<ellipse cx="351.766" cy="140.198" rx="132.242" ry="126.532" fill="white"/>
<path d="M458.168 108.253C458.168 106.082 456.173 104.306 453.734 104.306H396.1C393.662 104.306 391.667 102.53 391.667 100.36V49.0577C391.667 46.8872 389.672 45.1113 387.233 45.1113H316.299C313.86 45.1113 311.865 46.8872 311.865 49.0577V100.36C311.865 102.53 309.87 104.306 307.432 104.306H249.798C247.359 104.306 245.364 106.082 245.364 108.253V171.394C245.364 173.564 247.359 175.34 249.798 175.34H307.432C309.87 175.34 311.865 177.116 311.865 179.286V230.589C311.865 232.759 313.86 234.535 316.299 234.535H387.233C389.672 234.535 391.667 232.759 391.667 230.589V179.286C391.667 177.116 393.662 175.34 396.1 175.34H453.734C456.173 175.34 458.168 173.564 458.168 171.394V108.253Z" fill="#36BB93"/>
<ellipse cx="351.235" cy="561.802" rx="132.242" ry="126.532" fill="white"/>
<path d="M350.515 560.622C344.957 561.151 339.861 558.507 334.303 556.391C305.121 545.286 275.477 534.18 246.295 523.074C244.442 522.017 243.052 521.488 241.663 519.901C239.81 518.315 239.81 516.199 241.663 514.613C243.052 513.555 244.905 511.969 246.758 511.44C278.256 500.863 309.29 490.286 340.788 479.18C347.736 476.536 355.147 476.536 362.558 479.18C393.593 489.757 424.627 500.334 455.662 510.911C457.514 511.969 459.367 512.497 461.22 514.084C463.536 515.67 463.536 518.315 461.22 519.901C459.831 520.959 458.441 522.017 456.588 522.545C425.554 534.18 394.519 546.343 363.022 557.978C358.853 560.093 355.147 560.622 350.515 560.622Z" fill="#36BB93"/>
<path d="M288.909 562.21C284.277 561.152 283.35 564.325 283.35 566.969C283.35 580.719 283.35 593.94 283.35 607.162C283.35 611.921 284.74 614.565 287.519 617.738C288.446 618.796 289.835 619.854 290.762 620.911C298.173 626.729 306.974 630.431 315.775 633.075C333.376 638.363 350.978 639.421 369.043 636.777C380.623 635.19 392.203 631.488 402.856 626.2C407.488 623.556 412.12 620.911 415.363 616.681C417.679 614.036 418.605 611.392 418.142 607.69C418.605 594.998 418.605 581.777 418.605 568.556C418.605 561.152 413.973 562.21 412.12 562.739C395.908 569.085 378.77 574.902 362.558 581.248C354.22 584.421 346.346 584.421 338.471 581.248L288.909 562.21Z" fill="#36BB93"/>
<path d="M443.621 550.044C442.231 550.573 441.768 551.102 441.768 553.218C441.768 565.381 441.768 577.016 441.768 589.179C441.768 590.237 441.305 591.823 440.841 592.881C438.525 599.227 436.209 605.573 434.357 611.919C432.504 617.737 433.43 624.083 437.136 628.313C438.062 629.9 439.915 631.487 441.305 632.544C442.694 634.131 445.01 634.66 446.863 635.188C450.105 635.717 452.885 633.602 455.201 631.486C456.127 630.429 457.517 629.371 458.443 627.785C461.222 623.554 461.685 618.265 460.759 613.506C459.369 606.102 456.59 599.756 453.811 593.41C452.885 592.352 452.885 590.237 452.885 589.179C452.885 575.958 452.885 563.266 452.885 550.044C452.885 547.4 451.032 547.929 450.105 548.458L443.621 550.044Z" fill="#36BB93"/>
<ellipse cx="550.656" cy="349.228" rx="132.242" ry="126.532" fill="white"/>
<path d="M457.234 368.015V368.1H491.323C492.101 360.617 499.12 354.744 507.754 354.744C516.389 354.744 523.408 360.617 524.186 368.1H575.018C575.796 360.617 582.815 354.744 591.449 354.744C600.084 354.744 607.103 360.617 607.881 368.1H644.839V368.015C649.991 363.924 653.258 358.003 653.258 351.38V319.437C653.258 307.112 641.993 297.116 628.092 297.116H599.841C596.354 280.042 575.828 266.869 551.036 266.869C526.245 266.869 505.718 280.042 502.232 297.124H473.981C460.08 297.124 448.815 307.12 448.815 319.445V351.392C448.815 358.007 452.082 363.936 457.234 368.015ZM551.036 287.169C562.018 287.169 571.929 291.45 575.805 297.132H526.272C530.139 291.438 540.05 287.169 551.036 287.169ZM644.839 376.213V409.804C644.839 422.129 633.573 432.125 619.672 432.125H482.4C468.499 432.125 457.234 422.129 457.234 409.804V376.217H491.323C492.101 383.7 499.12 389.581 507.754 389.581C516.389 389.581 523.408 383.7 524.186 376.217H575.018C575.796 383.7 582.815 389.581 591.449 389.581C600.084 389.581 607.103 383.7 607.881 376.217H644.839V376.213Z" fill="#36BB93"/>
</svg>
