<svg width="1048" height="686" viewBox="0 0 1048 686" fill="none" xmlns="http://www.w3.org/2000/svg">
<path d="M571.869 323.199C560.602 327.827 454.455 327.619 447.992 323.199C441.231 321.015 438.859 319.611 438.8 315.139C438.764 310.504 440.496 305.991 443.719 302.317C446.942 298.643 451.472 296.018 456.59 294.859C491.365 287.578 527.606 287.578 562.381 294.859C567.66 295.915 572.369 298.524 575.723 302.251C579.078 305.978 580.878 310.599 580.824 315.347C581.12 319.507 577.325 321.379 571.869 323.199Z" fill="#FEDAF6"/>
<path d="M583.789 315.394C583.828 310.066 581.801 304.885 578.04 300.699C574.28 296.513 569.01 293.573 563.093 292.358C527.837 285.078 491.135 285.078 455.879 292.358C450.152 293.649 445.076 296.571 441.448 300.665C437.821 304.759 435.846 309.794 435.835 314.978C435.835 321.322 440.401 323.35 446.806 325.378C458.666 330.578 560.009 329.954 572.937 325.378C576.969 324.338 584.263 321.998 583.789 315.394ZM570.861 320.594C559.001 324.546 458.191 325.066 449.059 320.594C442.121 318.358 441.765 317.474 441.765 314.978C441.725 310.926 443.233 306.978 446.049 303.765C448.865 300.551 452.826 298.257 457.302 297.246C491.644 290.174 527.387 290.174 561.729 297.246C566.374 298.187 570.511 300.497 573.447 303.791C576.383 307.085 577.94 311.162 577.859 315.342C578.037 317.526 576.969 318.722 570.861 320.75V320.594Z" fill="#5E503B"/>
<path d="M521.879 250.969H497.982C495.623 250.969 493.712 252.645 493.712 254.713V293.141C493.712 295.209 495.623 296.885 497.982 296.885H521.879C524.237 296.885 526.149 295.209 526.149 293.141V254.713C526.149 252.645 524.237 250.969 521.879 250.969Z" fill="#FEDAF6"/>
<path d="M521.879 248.367H498.159C496.241 248.367 494.401 249.036 493.044 250.225C491.687 251.415 490.925 253.029 490.925 254.711V293.139C490.955 294.777 491.706 296.341 493.021 297.504C494.337 298.667 496.114 299.339 497.982 299.379H521.702C523.62 299.379 525.46 298.711 526.817 297.521C528.174 296.331 528.936 294.718 528.936 293.035V254.711C528.937 253.055 528.199 251.465 526.88 250.28C525.562 249.094 523.767 248.408 521.879 248.367ZM523.184 293.139C523.184 293.443 523.047 293.734 522.802 293.948C522.557 294.163 522.225 294.283 521.879 294.283H498.159C497.813 294.283 497.482 294.163 497.237 293.948C496.992 293.734 496.855 293.443 496.855 293.139V254.711C496.855 254.408 496.992 254.117 497.237 253.902C497.482 253.688 497.813 253.567 498.159 253.567H521.879C522.225 253.567 522.557 253.688 522.802 253.902C523.047 254.117 523.184 254.408 523.184 254.711V293.139Z" fill="#5E503B"/>
<path d="M274.895 16.3462H774.438C777.93 16.3487 781.344 17.2523 784.254 18.9445C787.165 20.6367 789.443 23.0425 790.805 25.8622C790.39 17.2302 775.387 3.24219 765.721 3.24219H281.892C273.65 3.24219 261.908 16.3462 258.943 25.3942C260.355 22.7183 262.603 20.4481 265.426 18.8467C268.25 17.2453 271.533 16.3783 274.895 16.3462Z" fill="#FEDAF6"/>
<path d="M774.497 16.3438H274.954C265.194 16.3438 257.283 23.2815 257.283 31.8397V250.448C257.283 259.006 265.194 265.944 274.954 265.944H774.497C784.257 265.944 792.169 259.006 792.169 250.448V31.8397C792.169 23.2815 784.257 16.3438 774.497 16.3438Z" fill="#FEDAF6"/>
<path d="M765.721 0.640625H281.892C270.032 0.640625 254.318 21.0766 254.318 31.8406V250.241C254.286 252.63 254.795 255.001 255.814 257.218C256.834 259.434 258.344 261.451 260.257 263.153C262.17 264.854 264.448 266.207 266.961 267.133C269.473 268.058 272.17 268.538 274.895 268.545H774.438C779.911 268.545 785.16 266.638 789.03 263.244C792.9 259.851 795.074 255.248 795.074 250.449V32.0486C795.134 15.3566 776.573 0.640625 765.721 0.640625ZM281.892 5.84062H765.721C771.935 7.0694 777.432 10.2277 781.198 14.7326C776.158 13.2246 809.247 13.7446 274.954 13.7446C272.946 13.768 270.951 14.0304 269.024 14.5246C273.175 9.74063 278.216 5.84062 281.892 5.84062ZM789.204 250.241C789.204 253.661 787.654 256.941 784.896 259.359C782.138 261.778 778.398 263.137 774.497 263.137H274.895C270.999 263.123 267.268 261.76 264.513 259.344C261.759 256.929 260.204 253.657 260.188 250.241V31.8406C260.204 28.4246 261.759 25.1524 264.513 22.7369C267.268 20.3214 270.999 18.9583 274.895 18.9446H774.438C778.338 18.9446 782.079 20.3033 784.837 22.7218C787.595 25.1402 789.144 28.4204 789.144 31.8406L789.204 250.241Z" fill="#5E503B"/>
<path d="M754.81 31.8438H294.642C285.963 31.8438 278.927 38.0133 278.927 45.6238V239.688C278.927 247.298 285.963 253.468 294.642 253.468H754.81C763.489 253.468 770.524 247.298 770.524 239.688V45.6238C770.524 38.0133 763.489 31.8438 754.81 31.8438Z" fill="white"/>
<path d="M754.81 29.2422H294.642C289.693 29.2559 284.95 30.986 281.451 34.0549C277.951 37.1238 275.978 41.2822 275.962 45.6222V239.686C275.978 244.026 277.951 248.185 281.451 251.253C284.95 254.322 289.693 256.052 294.642 256.066H754.81C759.764 256.066 764.515 254.34 768.018 251.269C771.521 248.197 773.489 244.03 773.489 239.686V45.6222C773.489 43.4711 773.006 41.3412 772.068 39.3538C771.129 37.3665 769.753 35.5608 768.018 34.0398C766.284 32.5188 764.225 31.3122 761.958 30.489C759.692 29.6659 757.263 29.2422 754.81 29.2422ZM767.559 239.686C767.559 242.651 766.216 245.495 763.825 247.592C761.434 249.688 758.191 250.866 754.81 250.866H294.642C291.261 250.866 288.018 249.688 285.627 247.592C283.236 245.495 281.892 242.651 281.892 239.686V45.6222C281.908 42.6613 283.256 39.8255 285.644 37.7318C288.031 35.6381 291.265 34.4559 294.642 34.4422H754.81C758.191 34.4422 761.434 35.6201 763.825 37.7167C766.216 39.8134 767.559 42.6571 767.559 45.6222V239.686Z" fill="#5E503B"/>
<path d="M605.552 162.83C622.582 162.83 636.388 150.724 636.388 135.79C636.388 120.856 622.582 108.75 605.552 108.75C588.521 108.75 574.716 120.856 574.716 135.79C574.716 150.724 588.521 162.83 605.552 162.83Z" fill="#FFCECC"/>
<path d="M586.991 128.252C595.31 128.252 602.053 122.339 602.053 115.044C602.053 107.749 595.31 101.836 586.991 101.836C578.672 101.836 571.929 107.749 571.929 115.044C571.929 122.339 578.672 128.252 586.991 128.252Z" fill="#5E503B"/>
<path d="M426.999 163.971C444.03 163.971 457.835 151.864 457.835 136.931C457.835 121.997 444.03 109.891 426.999 109.891C409.969 109.891 396.163 121.997 396.163 136.931C396.163 151.864 409.969 163.971 426.999 163.971Z" fill="#FFCECC"/>
<path d="M446.865 100.328C443.886 100.328 440.974 101.103 438.497 102.554C436.02 104.005 434.089 106.068 432.949 108.482C431.809 110.895 431.511 113.551 432.092 116.113C432.673 118.675 434.108 121.028 436.214 122.876C438.321 124.723 441.005 125.981 443.926 126.49C446.848 127 449.877 126.738 452.629 125.739C455.381 124.739 457.734 123.046 459.389 120.874C461.044 118.702 461.927 116.148 461.927 113.536C461.927 110.033 460.34 106.674 457.516 104.197C454.691 101.72 450.86 100.328 446.865 100.328Z" fill="#5E503B"/>
<path d="M262.916 450.65V436.922H757.063V450.65H262.916Z" fill="#DFEDED"/>
<path d="M757.063 434.58H263.035C261.434 434.58 260.07 437.024 260.07 438.428V451.896C260.07 454.86 262.442 453.508 263.035 453.508H757.241C758.842 453.508 760.206 451.376 760.206 449.92V437.284C760.087 433.852 757.656 434.58 757.063 434.58ZM754.098 448.308H265.881V439.78H754.098V448.308Z" fill="#5E503B"/>
<path d="M262.916 436.922L321.03 349.094H717.807L757.063 436.922H262.916Z" fill="#FEDAF6"/>
<path d="M759.85 435.254L720.594 348.362C720.381 347.849 720.006 347.401 719.512 347.069C719.018 346.737 718.426 346.537 717.807 346.49H321.03C320.538 346.444 320.04 346.516 319.591 346.7C319.141 346.883 318.758 347.17 318.48 347.53L260.366 436.866C258.469 439.83 261.434 439.778 262.798 439.778C275.132 440.142 347.241 440.298 757.122 439.778C758.074 439.384 758.854 438.731 759.346 437.915C759.838 437.099 760.015 436.165 759.85 435.254ZM268.075 434.578L322.75 351.69H715.79L752.734 434.578H268.075Z" fill="#5E503B"/>
<path d="M970.247 575.447C970.247 575.447 146.51 573.159 58.3905 569.779C56.4011 569.709 54.4638 569.201 52.7572 568.302C51.0506 567.403 49.6296 566.141 48.6253 564.634C47.621 563.126 47.0656 561.421 47.0104 559.676C46.9552 557.931 47.402 556.201 48.3095 554.647L91.3613 495.107C99.3668 482.523 103.874 477.531 114.133 477.531H918.537C921.101 477.536 923.615 478.154 925.809 479.317C928.003 480.481 929.794 482.146 930.99 484.135L982.7 557.403C983.822 559.282 984.373 561.383 984.298 563.503C984.224 565.622 983.527 567.69 982.275 569.504C981.022 571.319 979.257 572.819 977.15 573.86C975.043 574.901 972.665 575.448 970.247 575.447Z" fill="#ABFFE1"/>
<path d="M985.25 556.159L933.659 483.047C932.21 480.63 930.036 478.607 927.371 477.195C924.705 475.784 921.651 475.038 918.537 475.039H114.133C102.273 475.039 96.9951 481.123 88.871 493.811L45.7006 553.559C44.5637 555.5 44.0023 557.661 44.0682 559.842C44.134 562.024 44.825 564.155 46.0774 566.041C47.3297 567.927 49.1033 569.505 51.2344 570.632C53.3656 571.758 55.7859 572.396 58.2722 572.487C145.443 575.867 970.306 578.051 970.306 578.051C973.23 578.035 976.1 577.359 978.639 576.087C981.178 574.816 983.301 572.992 984.803 570.792C986.305 568.592 987.135 566.09 987.213 563.527C987.291 560.964 986.615 558.426 985.25 556.159ZM970.247 572.851C970.247 572.851 145.621 570.667 58.5094 567.287C57.0441 567.231 55.6175 566.857 54.3566 566.2C53.0957 565.543 52.0396 564.623 51.2824 563.521C50.5252 562.42 50.0904 561.171 50.0166 559.887C49.9429 558.602 50.2325 557.322 50.8597 556.159L93.9708 496.515C101.858 484.087 105.831 480.239 114.133 480.239H918.537C920.581 480.227 922.589 480.705 924.345 481.622C926.101 482.538 927.538 483.858 928.5 485.439L980.091 558.499C981.009 559.986 981.468 561.658 981.425 563.348C981.381 565.039 980.835 566.69 979.841 568.139C978.847 569.588 977.44 570.785 975.757 571.611C974.075 572.438 972.175 572.865 970.247 572.851Z" fill="#5E503B"/>
<path d="M887.642 493.03C897.9 494.482 907.502 498.387 915.394 504.314C932.651 517.002 941.605 552.258 914.683 556.314C876.731 562.086 838.423 529.118 860.482 500.57C867.539 491.47 876.078 491.47 887.642 493.03Z" fill="white"/>
<path d="M931.939 522.619C931.07 520.297 929.999 518.037 928.737 515.859C913.793 490.275 876.375 484.659 863.507 493.707C856.402 498.944 851.912 506.408 850.994 514.507C847.97 537.023 873.113 557.251 900.984 559.435C909.166 560.513 917.523 559.138 924.704 555.535C936.564 548.255 935.971 533.383 931.939 522.619ZM892.504 503.483C890.289 500.348 887.41 497.612 884.024 495.423C895.108 496.114 905.58 500.136 913.674 506.811C907.001 504.295 899.758 503.157 892.504 503.483ZM873.172 496.411C877.923 498.29 882.228 500.936 885.863 504.211C869.97 507.071 860.957 514.247 857.221 522.567C855.62 512.583 860.126 499.583 873.172 496.411ZM925.297 548.047C923.359 550.067 920.919 551.671 918.164 552.735C915.409 553.798 912.412 554.294 909.405 554.183C899.686 554.898 889.938 553.151 881.318 549.151C872.699 545.15 865.57 539.064 860.779 531.615C861.194 517.211 880.348 504.419 907.389 509.983C913.82 511.37 919.588 514.5 923.874 518.927C928.677 527.559 931.879 539.831 925.297 548.047Z" fill="#5E503B"/>
<path d="M595.115 366.353C595.055 365.7 594.716 365.091 594.167 364.648C593.617 364.204 592.897 363.959 592.15 363.961H343.801C343.241 363.971 342.695 364.117 342.223 364.383C341.752 364.65 341.375 365.025 341.133 365.469L317.413 411.125C317.205 411.52 317.113 411.954 317.145 412.388C317.178 412.822 317.334 413.242 317.599 413.609C317.865 413.976 318.231 414.279 318.665 414.49C319.098 414.701 319.586 414.814 320.081 414.817C615.988 414.817 597.605 415.285 598.791 413.985C599.075 413.724 599.291 413.412 599.424 413.071C599.557 412.73 599.604 412.368 599.562 412.009L595.115 366.353ZM382.228 409.617L385.786 399.841H533.561L533.028 409.617H382.228ZM354.831 409.617L359.101 399.841H379.559L376.001 409.617H354.831ZM337.812 384.085C338.405 384.085 336.626 384.085 359.635 384.085L355.009 394.485H332.357L337.812 384.085ZM365.98 384.085H385.371L381.516 394.485H361.473L365.98 384.085ZM390.886 369.109L387.565 378.937H368.352L372.621 369.161L390.886 369.109ZM415.97 369.109L413.479 378.885H393.495L397.112 369.109H415.97ZM440.579 369.109L439.037 378.885H419.646L422.137 369.109H440.579ZM466.256 369.109L464.892 378.885H445.145L446.687 369.109H466.256ZM488.612 369.109L487.841 378.885H471L472.305 369.109H488.612ZM509.723 369.109L509.13 378.885H493.89L494.661 369.109H509.723ZM535.34 369.109L534.747 378.885H515.238L515.831 369.109H535.34ZM563.567 369.109V378.885H540.677L541.27 369.109H563.567ZM468.687 394.589L470.11 384.189H487.367L486.596 394.589H468.687ZM387.683 394.589L391.538 384.189H412.056L409.387 394.589H387.683ZM418.164 384.189H438.148L436.487 394.589H415.673L418.164 384.189ZM444.137 384.189H464.655L463.232 394.589H442.655L444.137 384.189ZM493.356 384.189H508.774L508.122 394.589H492.704L493.356 384.189ZM514.704 384.189H534.392L533.799 394.589H514.289L514.704 384.189ZM539.432 399.789H563.152V409.565H538.78L539.432 399.789ZM539.432 394.589L540.025 384.189H563.093V394.589H539.432ZM569.082 384.189H590.549L591.497 394.589H569.082V384.189ZM590.074 378.989H569.616V369.213H589.541L590.074 378.989ZM345.284 369.213H365.861L361.591 378.989H340.599L345.284 369.213ZM329.332 399.633C330.222 399.997 328.799 399.633 352.459 399.633L348.19 409.409H324.47L329.332 399.633ZM568.963 409.669V399.893H592.031L592.921 409.669H568.963Z" fill="#5E503B"/>
<path d="M712.114 411.442L695.866 367.242C695.668 366.716 695.286 366.257 694.776 365.931C694.265 365.605 693.651 365.427 693.019 365.422L619.606 366.202C619.181 366.213 618.764 366.302 618.382 366.464C617.999 366.626 617.66 366.857 617.385 367.141C617.111 367.426 616.909 367.758 616.791 368.116C616.673 368.473 616.642 368.849 616.7 369.218L624.35 412.638C624.462 413.244 624.815 413.796 625.347 414.196C625.879 414.596 626.555 414.818 627.256 414.822H709.267C709.735 414.824 710.196 414.73 710.613 414.547C711.031 414.363 711.393 414.096 711.671 413.766C711.948 413.437 712.133 413.055 712.21 412.651C712.287 412.247 712.254 411.833 712.114 411.442ZM655.482 409.622L652.932 399.222H675.526L678.847 409.622H655.482ZM651.628 394.022L649.078 383.622H670.485L673.865 394.022H651.628ZM627.078 394.022L625.18 383.622H642.97L645.52 394.022H627.078ZM666.512 371.038L668.825 378.266H647.833L646.113 371.246L666.512 371.038ZM676.652 383.466H695.569L699.424 393.866H680.033L676.652 383.466ZM693.672 378.266H674.992L672.62 370.934H690.884L693.672 378.266ZM640.302 371.298L642.021 378.266H624.231L623.045 371.454L640.302 371.298ZM628.442 399.222H647.358L649.908 409.622H630.28L628.442 399.222ZM685.488 409.622L682.167 399.222C701.796 399.222 700.788 399.222 701.736 398.91L705.709 409.726L685.488 409.622Z" fill="#5E503B"/>
<path d="M62.838 57.9972C105.712 47.5972 151.314 41.0972 190.926 33.7652C192.92 33.5169 194.953 33.6945 196.852 34.2827C198.751 34.871 200.46 35.8526 201.834 37.1441C203.208 38.4356 204.206 39.9989 204.744 41.7011C205.281 43.4033 205.342 45.194 204.921 46.9212C178.651 208.797 190.274 313.317 195.255 342.073C195.692 344.395 195.32 346.778 194.188 348.912C193.056 351.046 191.216 352.83 188.91 354.033C163.292 367.137 105.89 390.433 52.5198 416.745C50.8073 417.625 48.8706 418.113 46.8871 418.166C44.9036 418.219 42.9366 417.834 41.1664 417.048C39.3963 416.261 37.8794 415.098 36.7549 413.664C35.6303 412.23 34.934 410.572 34.7298 408.841C16.2875 311.913 25.8348 170.161 54.1209 66.0052C54.6281 64.1103 55.7037 62.3687 57.2364 60.9607C58.769 59.5528 60.7029 58.5296 62.838 57.9972Z" fill="#51BDBF"/>
<path d="M190.333 31.2173C179.007 33.3493 167.147 35.4293 154.753 37.5613C81.3397 50.5093 61.4149 55.6573 62.0672 55.5013C59.4258 56.1526 57.0316 57.4125 55.1336 59.15C53.2356 60.8875 51.9031 63.0392 51.2746 65.3813C21.6246 172.345 13.6191 313.733 31.8242 409.101C32.0841 411.257 32.9547 413.322 34.3569 415.107C35.7591 416.893 37.6482 418.343 39.8524 419.325C42.0566 420.307 44.5058 420.79 46.9771 420.73C49.4485 420.67 51.8635 420.069 54.0024 418.981C105.178 394.229 165.546 368.593 190.392 356.217C193.208 354.758 195.456 352.587 196.842 349.99C198.228 347.392 198.687 344.488 198.161 341.657C194.958 322.209 180.371 216.493 207.767 47.4413C208.268 45.2998 208.175 43.0841 207.494 40.9811C206.813 38.8782 205.565 36.9498 203.855 35.3588C202.146 33.7678 200.024 32.5609 197.671 31.8401C195.317 31.1193 192.801 30.9056 190.333 31.2173ZM202.193 46.8173C174.619 216.805 189.266 323.145 192.527 342.749C192.875 344.549 192.597 346.4 191.73 348.06C190.863 349.72 189.446 351.113 187.665 352.057C164.419 363.549 102.213 390.121 51.2746 414.769C49.9671 415.501 48.463 415.918 46.9136 415.978C45.3641 416.038 43.8239 415.74 42.4477 415.113C41.0714 414.486 39.9077 413.552 39.0734 412.405C38.2391 411.259 37.7637 409.94 37.6949 408.581C19.9049 313.525 27.5546 172.969 57.0267 66.6293C57.4069 65.1792 58.2236 63.845 59.3917 62.7658C60.5599 61.6866 62.0367 60.9018 63.6683 60.4933C106.305 50.8213 153.152 43.4373 191.341 36.3653C192.88 36.1684 194.451 36.3043 195.917 36.7612C197.383 37.2181 198.699 37.9821 199.751 38.9868C200.803 39.9914 201.559 41.2063 201.954 42.5257C202.349 43.8451 202.37 45.2291 202.015 46.5573L202.193 46.8173Z" fill="#5E503B"/>
<path d="M30.5789 452.731C26.4694 452.729 22.4874 451.48 19.3092 449.196C16.1311 446.911 13.9529 443.732 13.1447 440.199C-9.74512 333.443 -0.0792189 164.599 35.5601 47.4951C36.4183 44.811 38.0811 42.3775 40.3755 40.4479C42.6698 38.5182 45.5119 37.163 48.6061 36.5231C101.264 25.7071 155.82 17.9591 206.759 9.43115C209.556 8.99254 212.432 9.14772 215.146 9.88369C217.861 10.6197 220.335 11.915 222.361 13.6614C224.387 15.4078 225.907 17.5543 226.793 19.9214C227.68 22.2886 227.906 24.8074 227.455 27.2671C193.357 216.183 211.681 334.587 215.595 356.583C216.004 359.714 215.322 362.881 213.639 365.665C211.956 368.45 209.351 370.722 206.166 372.183C33.959 450.495 41.0157 452.731 30.5789 452.731ZM49.97 41.5671C47.9121 42.0007 46.024 42.9092 44.5016 44.1985C42.9792 45.4878 41.878 47.1108 41.3122 48.8991C5.73219 165.327 -3.75581 333.131 18.9561 439.211C19.3384 440.8 20.1397 442.288 21.2958 443.557C22.452 444.826 23.9309 445.839 25.614 446.517C27.2972 447.194 29.1378 447.516 30.9885 447.458C32.8393 447.399 34.6486 446.961 36.2717 446.179C96.6391 416.643 160.802 387.159 203.438 367.711C205.584 366.753 207.345 365.244 208.489 363.386C209.633 361.529 210.105 359.41 209.843 357.311C205.81 335.263 187.368 216.183 221.525 26.3831C221.82 24.7442 221.663 23.0672 221.068 21.4921C220.473 19.9171 219.457 18.4897 218.105 17.3293C216.752 16.1688 215.103 15.309 213.294 14.8215C211.486 14.334 209.57 14.2331 207.708 14.5271C157.066 23.0551 102.45 30.8031 49.97 41.5671Z" fill="#5E503B"/>
<path d="M985.131 56.8546C942.079 47.1306 896.655 39.9546 857.043 32.6226C855.034 32.3492 852.979 32.5072 851.054 33.0831C849.13 33.659 847.394 34.6356 845.994 35.9292C844.595 37.2228 843.574 38.7948 843.02 40.5102C842.465 42.2257 842.394 44.0335 842.811 45.7786C869.318 207.603 857.458 312.331 852.536 341.139C852.118 343.454 852.493 345.825 853.611 347.954C854.73 350.083 856.543 351.873 858.822 353.099C884.44 366.255 942.257 389.187 995.212 415.499C996.92 416.377 998.852 416.866 1000.83 416.922C1002.81 416.977 1004.77 416.597 1006.54 415.817C1008.31 415.036 1009.83 413.879 1010.96 412.452C1012.09 411.025 1012.79 409.373 1013 407.647C1031.8 310.719 1022.91 168.863 994.085 64.8106C993.561 62.8951 992.449 61.1417 990.871 59.7396C989.293 58.3375 987.308 57.3399 985.131 56.8546Z" fill="#51BDBF"/>
<path d="M996.991 64.1829C996.334 61.8164 994.955 59.6513 993.001 57.9199C991.048 56.1885 988.593 54.9561 985.902 54.3549C942.731 44.5269 897.96 37.5069 857.517 30.0709C855.038 29.6975 852.493 29.8595 850.102 30.5429C847.71 31.2263 845.545 32.4105 843.793 33.993C842.041 35.5755 840.755 37.5086 840.046 39.6249C839.338 41.7413 839.229 43.9771 839.727 46.1389C866.175 207.807 853.841 312.535 849.453 340.719C848.9 343.565 849.348 346.492 850.735 349.111C852.122 351.729 854.384 353.917 857.221 355.383C875.841 364.951 939.411 391.783 993.611 417.783C995.731 418.877 998.128 419.492 1000.59 419.572C1003.04 419.652 1005.49 419.194 1007.69 418.239C1009.9 417.285 1011.8 415.864 1013.22 414.105C1014.65 412.346 1015.55 410.304 1015.85 408.163C1034.41 312.951 1026.58 171.563 996.991 64.1829ZM1010.1 407.383C1009.93 408.688 1009.4 409.936 1008.54 411.011C1007.68 412.086 1006.53 412.955 1005.19 413.535C1003.85 414.116 1002.36 414.39 1000.86 414.333C999.369 414.276 997.914 413.888 996.635 413.207C943.621 387.727 878.035 360.011 860.245 350.807C858.442 349.855 857.011 348.446 856.143 346.765C855.274 345.084 855.009 343.211 855.383 341.395C859.83 312.951 872.224 207.599 845.598 44.9949C845.278 43.6707 845.327 42.2983 845.74 40.9941C846.153 39.6899 846.919 38.4922 847.972 37.5024C849.025 36.5127 850.335 35.76 851.79 35.3082C853.245 34.8564 854.803 34.7188 856.331 34.9069C896.537 42.3429 940.597 49.2069 984.301 59.1389C986.008 59.5037 987.564 60.2823 988.791 61.3858C990.018 62.4892 990.866 63.8729 991.239 65.3789C1020.65 172.187 1028.42 312.691 1010.21 407.383H1010.1Z" fill="#5E503B"/>
<path d="M1012.41 46.6089C1011.56 43.9215 1009.92 41.4816 1007.63 39.5429C1005.35 37.6041 1002.51 36.2374 999.422 35.5849C948.424 24.8729 895.054 17.4889 841.329 8.4929C838.54 8.04212 835.669 8.18234 832.955 8.90187C830.241 9.6214 827.762 10.8994 825.726 12.6293C823.689 14.3593 822.153 16.491 821.247 18.8469C820.34 21.2028 820.089 23.7146 820.514 26.1729C854.671 215.193 836.407 333.597 832.374 355.437C831.845 358.636 832.462 361.901 834.14 364.779C835.819 367.658 838.476 370.008 841.744 371.505C1009.44 447.113 1006.42 451.845 1017.33 451.845C1021.44 451.829 1025.41 450.567 1028.58 448.273C1031.75 445.979 1033.91 442.795 1034.71 439.261C1057.65 332.505 1048.05 163.713 1012.41 46.6089ZM1028.89 438.325C1028.52 439.911 1027.72 441.398 1026.57 442.667C1025.42 443.936 1023.95 444.952 1022.28 445.633C1020.6 446.315 1018.77 446.644 1016.92 446.594C1015.07 446.544 1013.26 446.116 1011.64 445.345C936.268 408.581 859.119 373.481 844.175 366.981C842.118 365.962 840.454 364.428 839.398 362.575C838.341 360.723 837.94 358.635 838.245 356.581C842.277 334.637 860.66 215.505 826.385 25.7049C826.059 24.1875 826.122 22.6255 826.57 21.1323C827.019 19.6391 827.84 18.2521 828.976 17.0721C830.112 15.892 831.533 14.9485 833.136 14.3101C834.739 13.6716 836.484 13.3542 838.245 13.3809C840.202 13.3809 836.407 13.0169 883.372 20.5049C921.206 26.5369 960.462 32.7249 998.355 40.5769C1000.4 41.0186 1002.28 41.9308 1003.79 43.2196C1005.3 44.5083 1006.39 46.1269 1006.95 47.9089C1042.12 164.181 1051.72 332.245 1028.89 438.325Z" fill="#5E503B"/>
<path d="M65.3877 94.3978L77.2477 91.2258C78.0312 91.0424 78.7008 90.5958 79.1115 89.9826C79.5221 89.3694 79.6408 88.6391 79.4418 87.9498C79.1835 87.2876 78.6475 86.7364 77.9427 86.4081C77.2379 86.0797 76.417 85.9988 75.6466 86.1818L63.7866 89.3018C63.0804 89.5408 62.4991 89.9994 62.1535 90.5901C61.8079 91.1807 61.7222 91.8622 61.9127 92.5048C62.1032 93.1473 62.5566 93.7059 63.1865 94.0742C63.8164 94.4424 64.5788 94.5946 65.3284 94.5018L65.3877 94.3978Z" fill="white"/>
<path d="M63.9053 114.624L113.124 105.784C116.86 105.108 115.259 100.064 111.523 100.584L62.3635 109.424C58.6276 110.1 60.1694 115.144 63.9053 114.624Z" fill="white"/>
<path d="M58.2126 138.177C70.4957 133.96 83.2588 130.91 96.2832 129.077C97.0358 128.895 97.6758 128.459 98.0644 127.865C98.453 127.272 98.5587 126.567 98.3587 125.905C98.1248 125.249 97.6143 124.695 96.9313 124.357C96.2483 124.019 95.444 123.922 94.6821 124.085C81.6787 125.899 68.9352 128.932 56.6708 133.133C55.9221 133.339 55.2908 133.786 54.9052 134.385C54.5196 134.984 54.4088 135.689 54.5953 136.357C54.8035 137.017 55.3001 137.579 55.9774 137.919C56.6546 138.26 57.4578 138.353 58.2126 138.177Z" fill="white"/>
<path d="M150.78 136.103C151.172 136.018 151.541 135.866 151.865 135.654C152.188 135.443 152.461 135.176 152.665 134.871C152.87 134.566 153.002 134.227 153.055 133.876C153.108 133.525 153.081 133.169 152.974 132.827C152.765 132.14 152.256 131.553 151.556 131.193C150.857 130.833 150.024 130.729 149.238 130.903C117.631 138.183 86.2615 145.983 55.4848 154.771C54.7625 155.005 54.166 155.467 53.8127 156.067C53.4593 156.667 53.3747 157.361 53.5754 158.013C53.7761 158.664 54.2476 159.227 54.8972 159.589C55.5468 159.952 56.3276 160.088 57.0859 159.971C56.8487 160.491 88.93 150.299 150.78 136.103Z" fill="white"/>
<path d="M56.8486 181.028L109.566 165.428C113.184 164.388 111.642 159.344 107.965 160.228L55.2475 175.828C51.6895 176.868 53.2313 181.912 56.8486 181.028Z" fill="white"/>
<path d="M157.362 180.198C158.146 180.015 158.815 179.568 159.226 178.955C159.637 178.342 159.755 177.611 159.556 176.922C159.334 176.231 158.813 175.643 158.105 175.284C157.396 174.925 156.555 174.822 155.761 174.998L51.7491 199.542C51.0428 199.781 50.4615 200.24 50.1159 200.83C49.7703 201.421 49.6846 202.103 49.8751 202.745C50.0656 203.388 50.519 203.946 51.1489 204.314C51.7788 204.683 52.5412 204.835 53.2908 204.742C53.2908 204.222 48.7248 205.782 157.362 180.198Z" fill="white"/>
<path d="M51.6304 228.611L128.72 213.011C132.456 212.283 130.855 207.239 127.179 207.811L50.0885 223.411C46.3526 224.191 47.8945 229.183 51.6304 228.611Z" fill="white"/>
<path d="M50.0294 257.467C65.1273 253.123 80.5666 249.752 96.2241 247.379C99.96 246.807 98.4182 241.711 94.6823 242.179C78.9787 244.503 63.526 247.982 48.4876 252.579C44.8703 253.619 46.4121 258.611 50.0294 257.779V257.467Z" fill="white"/>
<path d="M107.788 229.6V241.56C107.788 242.25 108.1 242.911 108.656 243.398C109.212 243.886 109.966 244.16 110.753 244.16C111.539 244.16 112.293 243.886 112.849 243.398C113.405 242.911 113.718 242.25 113.718 241.56V229.6C113.718 228.91 113.405 228.249 112.849 227.762C112.293 227.274 111.539 227 110.753 227C109.971 227.013 109.226 227.292 108.673 227.776C108.12 228.261 107.803 228.915 107.788 229.6Z" fill="white"/>
<path d="M873.41 73.1825C905.854 78.0377 937.845 84.9899 969.12 93.9825C972.737 95.0745 974.398 89.9785 970.721 88.7825C939.624 79.1962 907.556 72.2314 874.952 67.9825C871.216 67.4625 869.615 72.5585 873.41 73.1825Z" fill="white"/>
<path d="M878.688 101.001L921.265 110.725C922.051 110.917 922.892 110.828 923.604 110.477C924.315 110.126 924.839 109.542 925.06 108.853C925.261 108.157 925.144 107.42 924.734 106.799C924.324 106.177 923.654 105.72 922.866 105.525L880.407 95.8014C879.621 95.6269 878.788 95.731 878.089 96.0911C877.39 96.4513 876.881 97.0384 876.671 97.7254C876.45 98.3943 876.537 99.1128 876.914 99.7258C877.291 100.339 877.928 100.797 878.688 101.001Z" fill="white"/>
<path d="M974.042 148.579C974.828 148.771 975.669 148.682 976.381 148.331C977.092 147.98 977.616 147.396 977.837 146.707C978.038 146.011 977.921 145.274 977.511 144.653C977.101 144.031 976.431 143.574 975.643 143.379C945.163 136.099 914.505 129.183 883.906 122.215C883.12 122.041 882.287 122.145 881.588 122.505C880.888 122.865 880.379 123.452 880.17 124.139C880.062 124.478 880.032 124.831 880.082 125.179C880.131 125.528 880.259 125.864 880.457 126.169C880.656 126.473 880.921 126.74 881.238 126.954C881.556 127.168 881.918 127.325 882.305 127.415C882.305 127.779 886.752 127.779 974.042 148.579Z" fill="white"/>
<path d="M882.245 152.9C902.763 157.632 923.103 162.52 943.265 167.98C946.883 168.968 948.484 163.976 944.807 162.78C924.645 157.268 904.305 152.38 883.847 147.7C883.06 147.525 882.228 147.629 881.528 147.99C880.829 148.35 880.32 148.937 880.111 149.624C880.003 149.962 879.973 150.315 880.022 150.664C880.072 151.012 880.199 151.348 880.398 151.653C880.596 151.958 880.862 152.225 881.179 152.439C881.496 152.653 881.859 152.81 882.245 152.9Z" fill="white"/>
<path d="M954.947 199.594C958.565 200.582 960.166 195.538 956.489 194.394L885.329 175.362C881.653 174.374 880.111 179.418 883.728 180.562C884.321 180.562 882.423 179.782 954.947 199.594Z" fill="white"/>
<path d="M883.669 209.372L921.265 220.084C924.942 221.124 926.483 216.08 922.866 214.884L885.388 204.172C881.653 203.132 880.052 208.176 883.669 209.372Z" fill="white"/>
<path d="M932.651 212.283L934.726 224.399C934.822 224.729 934.993 225.04 935.228 225.311C935.463 225.583 935.758 225.81 936.096 225.98C936.433 226.15 936.806 226.258 937.192 226.299C937.578 226.34 937.97 226.313 938.343 226.219C939.087 226.025 939.718 225.587 940.104 224.997C940.491 224.406 940.603 223.708 940.419 223.047L938.343 211.087C938.24 210.748 938.062 210.43 937.818 210.152C937.573 209.874 937.269 209.641 936.921 209.467C936.574 209.292 936.19 209.181 935.793 209.137C935.396 209.094 934.993 209.121 934.607 209.215C933.824 209.398 933.154 209.845 932.744 210.458C932.333 211.071 932.214 211.802 932.413 212.491L932.651 212.283Z" fill="white"/>
<path d="M198.635 531.194C260.663 533.95 269.795 558.39 268.194 566.242C267.601 569.622 254.377 607.842 194.069 602.226C182.891 601.264 172.099 598.121 162.485 593.029C152.871 587.936 144.677 581.022 138.505 572.794C124.984 554.178 148.349 528.958 198.635 531.194Z" fill="white"/>
<path d="M258.113 566.765C257.249 565.461 256.073 564.337 254.665 563.472C253.257 562.606 251.651 562.02 249.958 561.753C248.266 561.486 246.528 561.544 244.864 561.925C243.2 562.305 241.651 562.999 240.323 563.957C238.502 562.131 236.177 560.746 233.571 559.936C230.964 559.125 228.164 558.916 225.439 559.329C223.067 553.037 212.689 550.281 204.031 556.625C203.321 557.185 202.685 557.813 202.134 558.497C197.7 556.477 192.585 555.923 187.724 556.937C182.505 549.085 169.934 551.737 165.664 560.057C164.397 560.093 163.15 560.34 161.988 560.785C157.926 562.256 154.611 564.97 152.659 568.422C150.707 571.875 150.25 575.831 151.373 579.557C152.084 582.833 157.777 581.429 157.303 578.153C157.303 577.633 155.524 565.829 165.605 565.153C165.883 565.138 166.161 565.18 166.417 565.276C166.672 565.373 166.899 565.521 167.078 565.708C167.257 565.895 167.383 566.116 167.446 566.354C167.51 566.592 167.509 566.839 167.443 567.076C166.257 571.08 162.877 575.397 166.435 580.597C167.2 581.775 168.365 582.715 169.769 583.283C171.172 583.852 172.744 584.022 174.263 583.769C181.734 581.793 180.193 574.201 184.996 575.501C186.063 575.813 188.02 576.696 188.139 577.788C188.257 578.88 187.249 579.817 186.894 580.597C185.887 581.794 185.344 583.243 185.344 584.731C185.344 586.218 185.887 587.667 186.894 588.865C188.445 590.008 190.365 590.697 192.385 590.837C194.405 590.977 196.424 590.56 198.161 589.645C198.947 589.458 199.617 589.006 200.023 588.387C200.429 587.767 200.537 587.032 200.325 586.343C200.113 585.653 199.597 585.066 198.891 584.71C198.184 584.354 197.346 584.258 196.559 584.445C195.255 584.913 193.061 585.953 191.638 585.329C190.214 584.705 191.222 583.977 191.638 583.197C192.524 582.072 193.135 580.797 193.431 579.455C193.727 578.112 193.702 576.73 193.357 575.397C192.377 573.724 190.849 572.348 188.969 571.445C189.63 570.656 190.576 570.087 191.654 569.832C192.731 569.577 193.876 569.65 194.899 570.041C198.338 570.977 194.899 574.461 198.22 575.969C197.609 577.768 197.834 579.707 198.844 581.362C199.855 583.017 201.57 584.256 203.616 584.809C205.062 585.626 206.727 586.095 208.445 586.168C210.163 586.241 211.872 585.915 213.401 585.225C215.558 583.937 217.246 582.132 218.263 580.025C219.212 578.569 220.872 574.825 223.363 576.229C224.103 576.714 224.631 577.407 224.858 578.193C225.084 578.979 224.996 579.809 224.608 580.545C224.193 581.429 222.474 584.341 220.813 583.665C217.374 582.365 214.349 586.836 217.848 588.188C219.075 588.597 220.387 588.77 221.696 588.696C223.005 588.623 224.281 588.304 225.438 587.763C226.595 587.221 227.607 586.468 228.405 585.555C229.203 584.642 229.768 583.589 230.064 582.469C231.002 582.817 232.01 582.997 233.029 582.997C234.048 582.997 235.056 582.817 235.994 582.469C236.268 582.743 236.606 582.963 236.984 583.115C237.362 583.268 237.772 583.348 238.188 583.353C255.741 584.809 262.442 574.305 258.113 566.765ZM174.678 577.165C174.025 578.309 173.195 579.297 172.365 579.141C169.637 578.673 170.645 573.94 171.831 571.86C173.373 568.272 174.915 564.165 171.298 561.825C174.5 556.989 180.371 556.885 181.616 559.537C178.534 561.456 176.21 564.17 174.966 567.301C173.723 570.432 173.622 573.825 174.678 577.009V577.165ZM202.608 571.341C200.888 562.501 187.071 561.981 182.446 570.197V570.716C181.698 570.813 180.976 571.025 180.311 571.341C180.537 569.591 181.218 567.91 182.302 566.428C183.386 564.946 184.844 563.703 186.563 562.793C188.282 561.884 190.217 561.333 192.217 561.183C194.218 561.033 196.231 561.288 198.101 561.929C202.964 563.385 206.166 567.493 203.498 570.665L202.608 571.341ZM237.654 573.629C237.497 574.646 237.048 575.612 236.35 576.437C236.747 574.676 236.477 572.849 235.579 571.237C234.793 570.107 233.682 569.179 232.358 568.546C231.033 567.912 229.542 567.595 228.034 567.627C226.526 567.659 225.054 568.038 223.765 568.726C222.477 569.414 221.418 570.388 220.695 571.548C219.623 571.763 218.613 572.17 217.73 572.745C211.325 578.205 212.393 581.377 208.835 581.429C207.056 581.429 202.905 579.713 203.853 577.892C204.986 576.342 206.319 574.911 207.826 573.629C209.178 571.988 209.855 569.995 209.747 567.974C209.639 565.952 208.753 564.023 207.233 562.501C207.767 559.329 211.029 557.977 214.824 557.769C218.619 557.561 219.686 561.253 219.686 561.253C217.248 562.329 215.073 563.813 213.282 565.62C212.735 566.115 212.429 566.777 212.429 567.466C212.429 568.156 212.735 568.818 213.282 569.313C213.836 569.789 214.581 570.056 215.358 570.056C216.134 570.056 216.879 569.789 217.433 569.313C225.142 560.785 239.315 564.893 237.654 573.473V573.629ZM241.805 578.516C243.674 575.784 244.269 572.524 243.466 569.416C249.396 564.216 253.784 567.856 254.199 572.12C254.147 573.373 253.732 574.594 252.994 575.668C252.255 576.741 251.217 577.632 249.977 578.256C248.737 578.881 247.336 579.218 245.906 579.236C244.477 579.254 243.065 578.953 241.805 578.36V578.516Z" fill="#EFAC54"/>
<path d="M140.64 650.487C140.466 654.925 141.46 659.337 143.545 663.383C147.634 668.461 153.04 672.614 159.319 675.499C175.152 682.623 190.214 682.623 208.004 682.415C215.532 682.49 222.971 680.993 229.708 678.047C245.601 670.715 249.989 652.775 252.954 637.279C257.342 614.919 263.391 581.067 267.719 558.759C263.806 595.159 193.061 600.983 158.489 585.227C152.282 582.437 146.992 578.302 143.121 573.214C139.25 568.127 136.926 562.256 136.37 556.159C135.777 555.639 135.718 548.619 140.64 650.487Z" fill="white"/>
<path d="M264.695 549.811C256.808 541.127 239.018 530.415 198.813 528.595C171.95 527.399 150.069 533.795 138.861 545.807C135.979 548.728 133.937 552.211 132.905 555.965C131.873 559.72 131.882 563.636 132.931 567.387C132.931 567.959 137.2 633.635 137.2 633.635C137.2 639.979 137.675 646.375 138.149 652.719C138.035 657.559 139.563 662.318 142.537 666.395C149.368 673.924 158.723 679.381 169.282 681.995C181.027 684.847 193.233 685.955 205.395 685.271C216.82 685.841 228.104 682.837 237.24 676.795C252.895 664.835 255.03 643.775 257.995 626.979C270.625 560.419 276.022 562.291 264.695 549.811ZM247.676 647.779C242.576 653.239 236.824 664.991 210.97 668.215C212.334 657.127 213.047 645.984 213.104 634.831C227.551 634.071 241.398 629.504 252.835 621.727C252.776 621.779 248.625 643.983 247.676 647.779ZM257.164 598.535C255.144 600.688 252.901 602.673 250.463 604.463C252.229 598.129 253.38 591.676 253.903 585.171C253.932 584.895 253.932 584.616 253.903 584.339C256.511 582.731 258.898 580.864 261.019 578.775L257.164 598.535ZM139.928 574.303C143.015 578.584 147.048 582.279 151.788 585.171C151.421 592.587 151.798 600.017 152.915 607.375C147.692 604.723 143.545 600.705 141.055 595.883L139.928 574.303ZM158.786 607.947C157.758 601.419 157.322 594.829 157.481 588.239C161.573 590.044 165.815 591.573 170.171 592.815L171.594 614.499C167.109 613.238 162.714 611.744 158.43 610.027C158.695 609.69 158.866 609.302 158.928 608.895C158.99 608.488 158.941 608.074 158.786 607.687V607.947ZM177.584 616.007L176.22 594.271C181.073 595.298 186.01 595.993 190.985 596.351C190.71 603.668 191.146 610.992 192.29 618.243C187.321 617.751 182.404 616.916 177.584 615.747V616.007ZM198.22 618.555C197.112 611.318 196.656 604.015 196.856 596.715C201.971 597.001 207.101 597.001 212.215 596.715C211.879 603.892 212.017 611.081 212.63 618.243C207.835 618.569 203.018 618.586 198.22 618.295V618.555ZM218.501 617.307C217.611 606.075 218.501 597.131 218.145 595.987C222.774 595.446 227.352 594.612 231.843 593.491L229.175 612.887C229.178 613.524 229.453 614.136 229.946 614.603C226.201 615.653 222.377 616.47 218.501 617.047V617.307ZM237.951 591.723C241.23 590.633 244.419 589.347 247.498 587.875C246.778 594.389 245.368 600.83 243.288 607.115C243.048 607.704 243.048 608.347 243.288 608.935C240.617 610.388 237.845 611.69 234.986 612.835C238.129 590.579 238.01 591.983 237.951 591.463V591.723ZM198.517 534.055C222.948 535.147 267.542 543.831 263.747 564.111C251.887 599.575 158.904 601.707 142.241 566.451C130.974 542.687 169.46 532.547 198.517 533.795V534.055ZM215.773 679.655C203.96 681.164 191.949 681.006 180.193 679.187C169.385 677.835 159.253 673.772 151.017 667.487C148.907 665.906 147.184 663.967 145.951 661.787C144.718 659.606 144 657.229 143.842 654.799C143.842 653.551 141.47 605.815 141.411 605.295C146.392 610.425 152.9 614.241 160.209 616.319C196.56 629.995 234.393 624.015 255.504 607.375L254.318 613.667C242.405 623.671 226.631 629.371 210.139 629.631C209.358 629.645 208.612 629.923 208.06 630.408C207.507 630.892 207.19 631.546 207.174 632.231C207.176 645.193 206.344 658.144 204.684 671.023C204.684 671.713 204.996 672.374 205.552 672.862C206.108 673.349 206.862 673.623 207.649 673.623C221.019 672.87 233.64 667.945 243.229 659.739C242.458 661.351 241.628 663.015 240.679 664.575C238.168 668.644 234.578 672.123 230.213 674.721C225.848 677.318 220.834 678.957 215.595 679.499L215.773 679.655Z" fill="#A6BCBC"/>
<path d="M276.674 628.905C279.639 631.037 283.849 627.345 280.884 625.265C231.487 590.165 175.508 547.837 127.89 510.397C125.044 508.161 120.833 511.853 123.68 514.089C123.68 513.205 174.085 555.065 276.674 628.905Z" fill="#5E503B"/>
<path d="M311.009 606.593C314.211 608.465 316.939 603.837 313.974 602.069C271.871 577.057 238.01 559.117 140.403 506.129C137.141 504.361 134.473 508.885 137.438 510.653C137.438 509.873 296.362 598.065 311.009 606.593Z" fill="#5E503B"/>
<path d="M541.745 136.931C541.463 136.601 541.095 136.335 540.673 136.154C540.25 135.973 539.784 135.883 539.314 135.891L493.06 136.411C492.268 136.425 491.514 136.71 490.959 137.206C490.405 137.702 490.095 138.369 490.095 139.063C490.095 139.402 490.172 139.738 490.321 140.05C490.471 140.363 490.691 140.646 490.967 140.883C491.243 141.121 491.57 141.307 491.93 141.432C492.289 141.557 492.673 141.618 493.06 141.611C495.18 145.526 498.549 148.818 502.759 151.089C506.968 153.359 511.839 154.51 516.78 154.403H518.025C523.288 154.348 528.401 152.856 532.652 150.135C536.903 147.413 540.081 143.598 541.745 139.219C541.936 138.861 542.035 138.47 542.035 138.075C542.035 137.68 541.936 137.289 541.745 136.931ZM517.076 149.203C513.697 149.27 510.35 148.608 507.331 147.275C504.312 145.942 501.712 143.979 499.761 141.559L534.57 141.143C532.789 143.774 530.212 145.92 527.123 147.343C524.035 148.766 520.557 149.41 517.076 149.203Z" fill="#5E503B"/>
</svg>
