<svg width="1006" height="935" viewBox="0 0 1006 935" fill="none" xmlns="http://www.w3.org/2000/svg">
<path d="M77.2993 33.3047C80.8061 42.8651 87.6033 56.6945 97.6909 74.7928C235.855 243.651 386.745 297.918 550.36 237.594C713.976 177.271 800.569 230.428 810.139 397.066C766.775 709.814 604.638 822.385 323.729 734.78C195.881 694.909 98.7092 737.991 32.2133 864.028" stroke="#CCE3F7" stroke-width="4.87872" stroke-linecap="round" stroke-dasharray="0.81 10.57"/>
<path fill-rule="evenodd" clip-rule="evenodd" d="M201.046 234.918C201.713 234.111 202.435 233.4 203.174 232.724C212.956 221.47 228.039 212.924 247.443 209.288C248.215 209.14 249.051 209.068 249.836 208.937C249.727 208.824 267.476 199.472 267.476 199.472L270.616 162.232C263.845 157.371 259.92 144.613 258.182 136.63C256.217 127.584 255.78 118.154 257.015 108.959C257.426 105.887 258.127 102.621 260.277 100.526C262.426 98.4309 266.46 98.3453 267.842 101.08C268.219 97.7416 270.029 94.7593 272.22 92.3445C281.456 82.1675 296.38 81.2484 307.917 74.2294C311.623 71.9679 315.137 69.008 319.352 68.2692C325.855 67.1249 332.328 71.8823 335.422 78.0858C338.516 84.2939 338.869 91.6237 338.558 98.6427C338.433 101.548 338.197 104.486 337.333 107.243C335.922 111.762 332.929 115.519 331.14 119.88C329.176 124.678 328.739 129.994 327.732 135.116C327.228 137.684 326.523 140.292 325.46 142.662L324.663 152.916C323.403 169.188 313.299 182.073 301.086 184.285C301.086 184.285 300.251 193.588 299.344 203.869L299.604 202.959L309.394 213.852C310.612 214.275 311.846 214.681 313.034 215.145C334.05 223.394 350.414 237.72 358.197 254.565C367.681 270.206 374.948 286.037 380.619 302.513C408.335 279.514 428.36 245.825 434.649 206.004C447.961 121.619 394.574 41.7115 315.389 27.5204C236.213 13.3338 161.235 70.2334 147.919 154.614C140.891 199.165 152.47 242.455 176.604 275.5C182.318 261.719 189.74 248.519 201.046 234.918Z" fill="#CCE3F7"/>
<path fill-rule="evenodd" clip-rule="evenodd" d="M299.234 238.873L296.114 236.427L296.803 237.404C297.798 238.828 297.978 240.725 297.265 242.333L294.343 248.915C293.94 249.825 293.327 250.496 292.613 250.956L293.646 335.197C300.094 335.093 306.471 334.544 312.739 333.548L313.033 215.145C311.845 214.681 310.611 214.28 309.393 213.852L309.511 213.982L299.234 238.873Z" fill="white"/>
<path fill-rule="evenodd" clip-rule="evenodd" d="M267.174 333.094C271.208 333.819 275.222 334.31 279.223 334.666L287.808 250.844C287.258 250.461 286.754 249.97 286.385 249.294L283.261 243.636C282.266 241.825 282.48 239.536 283.803 237.977L286.939 234.279L277.715 237.977L249.836 208.938C249.051 209.068 248.215 209.14 247.443 209.289L250.176 328.886C255.701 330.612 261.355 332.053 267.174 333.094Z" fill="white"/>
<path fill-rule="evenodd" clip-rule="evenodd" d="M358.195 254.56C350.412 237.716 334.048 223.394 313.032 215.141L312.739 333.549C324.51 331.679 335.895 328.282 346.697 323.525C350.144 322.006 353.536 320.358 356.856 318.569C365.252 314.037 373.212 308.658 380.622 302.513C374.946 286.038 367.683 270.202 358.195 254.56Z" fill="#FFC800"/>
<path fill-rule="evenodd" clip-rule="evenodd" d="M247.442 209.289C228.039 212.929 212.955 221.471 203.173 232.729C202.434 233.4 201.717 234.112 201.045 234.923C189.739 248.524 182.317 261.724 176.604 275.501C180.453 280.772 184.634 285.759 189.101 290.471C195.067 296.769 201.549 302.545 208.513 307.69C221.003 316.921 235.003 324.142 250.175 328.886L247.442 209.289Z" fill="#FFC800"/>
<path fill-rule="evenodd" clip-rule="evenodd" d="M324.664 152.913L325.462 142.664L326.792 125.558C327.494 116.543 325.273 108.177 321.222 101.703C317.796 102.658 314.748 104.893 312.061 107.217C306.369 112.164 301.352 117.831 295.324 122.404C289.287 126.972 281.902 130.464 274.136 130.058C273.787 130.04 273.439 129.995 273.09 129.959C268.569 129.702 264.547 134.068 264.094 139.852C263.649 145.637 266.94 150.651 271.453 151.048C271.554 152.151 271.575 153.242 271.646 154.323C271.39 154.918 271.176 155.548 271.121 156.242L270.618 162.229L267.478 199.469L268.834 198.752L274.619 207.497L290.882 232.09C291.033 232.09 291.18 232.113 291.331 232.131L297.486 210.416L299.345 203.866C300.252 193.585 301.088 184.282 301.088 184.282C313.3 182.07 323.4 169.185 324.664 152.913Z" fill="#FF9BA0"/>
<path fill-rule="evenodd" clip-rule="evenodd" d="M335.422 78.0845C332.332 71.8765 325.863 67.1236 319.351 68.2633C315.136 69.0022 311.627 71.9666 307.916 74.2236C296.379 81.2471 281.459 82.1661 272.219 92.3387C270.028 94.7534 268.219 97.7403 267.841 101.074C266.46 98.3395 262.429 98.4251 260.28 100.52C258.131 102.615 257.429 105.881 257.014 108.958C255.78 118.153 256.216 127.582 258.185 136.624C259.923 144.612 263.844 157.366 270.616 162.227L271.128 156.244C271.174 155.55 271.388 154.915 271.648 154.32C271.581 153.243 271.552 152.149 271.455 151.049C266.942 150.648 263.647 145.639 264.1 139.854C264.549 134.07 268.567 129.7 273.08 130.101C268.823 129.51 273.785 130.042 274.134 130.06C281.904 130.461 289.293 126.97 295.321 122.401C301.354 117.829 306.367 112.161 312.068 107.219C314.746 104.89 317.798 102.66 321.219 101.7C325.271 108.174 327.491 116.545 326.79 125.559L325.464 142.661C326.522 140.291 327.227 137.683 327.731 135.11C328.738 129.988 329.179 124.672 331.14 119.878C332.928 115.518 335.921 111.76 337.332 107.242C338.197 104.48 338.432 101.547 338.558 98.6413C338.868 91.6224 338.516 84.2926 335.422 78.0845Z" fill="black"/>
<path fill-rule="evenodd" clip-rule="evenodd" d="M274.619 211.588L268.834 202.844L267.478 203.56C267.478 203.56 257.111 206.762 252.443 209.564L274.619 243.718L286.94 238.371L287.469 237.749C288.158 236.934 289.044 236.447 289.963 236.263C290.274 236.2 290.58 236.177 290.887 236.182L274.619 211.588Z" fill="#E5E7F5"/>
<path fill-rule="evenodd" clip-rule="evenodd" d="M274.619 207.502L268.834 198.758L267.478 199.474C267.478 199.474 254.506 206.137 249.838 208.939L277.717 237.979L286.94 234.285L287.469 233.663C288.158 232.848 289.044 232.361 289.963 232.177C290.274 232.114 290.58 232.091 290.887 232.096L274.619 207.502Z" fill="white"/>
<path fill-rule="evenodd" clip-rule="evenodd" d="M300.556 210.125L300.296 211.035L298.44 217.581L292.282 239.3C292.676 239.345 293.058 239.453 293.428 239.606C294.167 239.926 294.855 240.431 295.376 241.17L297.068 243.589L300.191 246.035L308.822 213.981L300.556 210.125Z" fill="#E5E7F5"/>
<path fill-rule="evenodd" clip-rule="evenodd" d="M309.393 213.85L299.603 202.961L299.342 203.871L297.487 210.417L291.328 232.136C291.723 232.181 292.105 232.289 292.474 232.442C293.213 232.762 293.902 233.267 294.422 234.006L296.114 236.425L299.237 238.871L309.51 213.98L309.393 213.85Z" fill="white"/>
<path fill-rule="evenodd" clip-rule="evenodd" d="M292.612 250.957C293.326 250.498 293.939 249.826 294.342 248.916L297.264 242.33C297.973 240.726 297.797 238.829 296.802 237.406L296.114 236.424L294.422 234.009C293.901 233.266 293.217 232.761 292.474 232.446C292.104 232.288 291.722 232.184 291.328 232.135C291.181 232.117 291.034 232.094 290.883 232.094C290.581 232.09 290.27 232.112 289.963 232.175C289.04 232.36 288.154 232.842 287.461 233.662L286.937 234.279L283.801 237.978C282.482 239.537 282.264 241.825 283.259 243.636L286.382 249.295C286.756 249.971 287.26 250.462 287.806 250.845L279.225 334.667C284.065 335.104 288.872 335.275 293.645 335.198L292.612 250.957Z" fill="#4D94E5"/>
<path opacity="0.28192" fill-rule="evenodd" clip-rule="evenodd" d="M296.062 188.522C370.733 199.907 434.928 136.594 424.315 216.701C422.711 228.804 419.757 240.35 415.655 251.199C424.846 234.85 431.192 216.305 433.85 196.243C444.463 116.136 392.345 41.7012 317.674 30.3155C254.284 20.6503 194.712 59.4861 171.662 120.447C199.169 71.5142 240.09 179.987 296.062 188.522Z" fill="white"/>
<path d="M452.285 340.719L483.013 373.683" stroke="black" stroke-width="6.34234" stroke-linecap="round" stroke-linejoin="round"/>
<path fill-rule="evenodd" clip-rule="evenodd" d="M429.615 317.061C432.107 314.387 432.107 310.051 429.615 307.378L416.46 293.266L407.434 302.948L420.588 317.061C423.081 319.735 427.122 319.735 429.615 317.061Z" fill="#263238"/>
<path fill-rule="evenodd" clip-rule="evenodd" d="M429.615 317.061C432.107 314.387 432.107 310.051 429.615 307.378L416.46 293.266L407.434 302.948L420.588 317.061C423.081 319.735 427.122 319.735 429.615 317.061Z" stroke="#14181A" stroke-width="6.34234"/>
<path fill-rule="evenodd" clip-rule="evenodd" d="M508.161 401.323C518.767 389.945 518.767 371.497 508.161 360.12L462.071 310.675C451.464 299.296 434.268 299.296 423.661 310.675C413.055 322.052 413.055 340.5 423.661 351.878L469.752 401.323C480.358 412.702 497.555 412.702 508.161 401.323Z" fill="#4D94E5"/>
<path opacity="0.935993" d="M463.727 328.445L494.455 361.41" stroke="white" stroke-width="6.34234" stroke-linecap="round" stroke-linejoin="round"/>
<path d="M454.346 317.356L450.971 313.734" stroke="white" stroke-width="6.34234" stroke-linecap="round" stroke-linejoin="round"/>
<path fill-rule="evenodd" clip-rule="evenodd" d="M433.85 196.247C444.463 116.141 392.347 41.7055 317.674 30.3188C243.003 18.933 173.617 74.8428 163.003 154.95C152.39 235.056 204.507 309.492 279.179 320.878C353.852 332.263 423.237 276.353 433.85 196.247ZM137.032 150.989C149.681 55.5195 232.373 -11.1121 321.366 2.45748C410.36 16.027 472.47 104.738 459.821 200.207C447.173 295.676 364.482 362.309 275.488 348.739C186.495 335.17 124.384 246.459 137.032 150.989Z" fill="url(#paint0_linear_321_460)"/>
<mask id="mask0_321_460" style="mask-type:luminance" maskUnits="userSpaceOnUse" x="135" y="0" width="327" height="351">
<path d="M137.032 150.989C124.383 246.459 186.495 335.169 275.488 348.739C364.482 362.308 447.172 295.676 459.821 200.208C472.469 104.737 410.36 16.0259 321.365 2.45737C313.62 1.27696 305.926 0.703125 298.317 0.703125C218.513 0.705171 148.58 63.8293 137.032 150.989ZM279.179 320.878C204.506 309.492 152.39 235.056 163.003 154.95C173.617 74.8427 243.003 18.934 317.674 30.3197C392.347 41.7054 444.463 116.14 433.85 196.247C424.16 269.386 365.486 322.355 298.518 322.35C292.138 322.349 285.673 321.868 279.179 320.878Z" fill="#A6ADC9"/>
</mask>
<g mask="url(#mask0_321_460)">
<path fill-rule="evenodd" clip-rule="evenodd" d="M442.832 197.612C454.149 112.192 398.577 32.8198 318.951 20.6792C239.325 8.53754 165.339 68.1552 154.021 153.576C142.703 238.996 198.278 318.37 277.902 330.51C357.528 342.651 431.515 283.032 442.832 197.612Z" fill="#A6ADC9"/>
</g>
<path opacity="0.223661" fill-rule="evenodd" clip-rule="evenodd" d="M515.264 373.484C514.1 378.383 511.735 383.019 508.161 386.853C497.555 398.232 480.358 398.232 469.752 386.853L423.661 337.409C420.087 333.575 417.723 328.938 416.559 324.039C414.264 333.679 416.629 344.33 423.661 351.875L469.752 401.32C480.358 412.698 497.555 412.698 508.161 401.32C515.193 393.775 517.558 383.124 515.264 373.484Z" fill="#263238"/>
<path fill-rule="evenodd" clip-rule="evenodd" d="M137.029 155.081C149.678 59.6121 232.37 -7.02058 321.362 6.54899C401.922 18.8328 460.449 92.69 461.437 177.396C462.322 90.989 403.217 14.9387 321.362 2.45745C232.37 -11.1121 149.678 55.5205 137.029 150.989C135.83 160.038 135.306 169.024 135.41 177.892C135.487 170.355 136.014 162.74 137.029 155.081Z" fill="white"/>
<path fill-rule="evenodd" clip-rule="evenodd" d="M279.176 324.967C353.848 336.353 423.234 280.443 433.847 200.336C434.857 192.709 435.295 185.134 435.204 177.659C435.119 183.802 434.673 190.007 433.847 196.245C423.234 276.352 353.848 332.261 279.176 320.876C211.614 310.574 162.519 248.656 161.643 177.625C160.643 250.357 210.319 314.467 279.176 324.967Z" fill="white"/>
<path d="M828.55 652.182C926.552 652.182 1006 567.049 1006 462.033C1006 357.016 926.552 271.883 828.55 271.883C730.548 271.883 651.102 357.016 651.102 462.033C651.102 567.049 730.548 652.182 828.55 652.182Z" fill="url(#paint1_linear_321_460)"/>
<mask id="mask1_321_460" style="mask-type:luminance" maskUnits="userSpaceOnUse" x="651" y="271" width="355" height="382">
<path d="M828.55 652.182C926.552 652.182 1006 567.049 1006 462.033C1006 357.016 926.552 271.883 828.55 271.883C730.548 271.883 651.102 357.016 651.102 462.033C651.102 567.049 730.548 652.182 828.55 652.182Z" fill="#A6ADC9"/>
</mask>
<g mask="url(#mask1_321_460)">
<path fill-rule="evenodd" clip-rule="evenodd" d="M888.481 751.23H895.02V543.664H888.481V751.23Z" fill="#A6ADC9"/>
</g>
<mask id="mask2_321_460" style="mask-type:luminance" maskUnits="userSpaceOnUse" x="651" y="271" width="355" height="382">
<path d="M828.55 652.182C926.552 652.182 1006 567.049 1006 462.033C1006 357.016 926.552 271.883 828.55 271.883C730.548 271.883 651.102 357.016 651.102 462.033C651.102 567.049 730.548 652.182 828.55 652.182Z" fill="#A6ADC9"/>
</mask>
<g mask="url(#mask2_321_460)">
<path fill-rule="evenodd" clip-rule="evenodd" d="M960.8 751.23H967.338V543.664H960.8V751.23Z" fill="#A6ADC9"/>
</g>
<path fill-rule="evenodd" clip-rule="evenodd" d="M773.801 518.527C773.783 518.487 773.762 518.447 773.745 518.413L773.801 514.805H910.082V518.413C910.082 518.413 910.105 518.487 910.082 518.527L909.735 519.197C907.983 522.324 904.841 522.887 901.243 522.887H782.645C779.045 522.887 775.907 522.324 774.152 519.197L773.801 518.527Z" fill="#657786"/>
<path fill-rule="evenodd" clip-rule="evenodd" d="M806.645 519.138C806.645 519.138 806.666 519.199 806.645 519.237L806.307 519.778C805.768 520.588 805.091 521.183 804.314 521.617H783.593C780.129 521.617 777.107 521.165 775.422 518.635L775.096 518.087C775.073 518.055 775.053 518.027 775.035 517.996L775.071 516.219H806.645V519.138Z" fill="#D2D7E7"/>
<path fill-rule="evenodd" clip-rule="evenodd" d="M807.4 514.669L825.069 441.277C825.537 439.332 827.344 437.766 829.109 437.766H924.725C926.488 437.766 927.544 439.332 927.078 441.277L909.41 514.669H807.4Z" fill="#14181A"/>
<path fill-rule="evenodd" clip-rule="evenodd" d="M812.907 514.669L828.676 446.212C829.093 444.476 830.707 443.078 832.281 443.078H917.615C919.188 443.078 920.131 444.476 919.714 446.212L903.947 514.669H812.907Z" fill="#8DC5F3"/>
<path fill-rule="evenodd" clip-rule="evenodd" d="M652.018 544.157H979.689V522.945H652.018V544.157Z" fill="#A6ADC9"/>
<path fill-rule="evenodd" clip-rule="evenodd" d="M755.429 733.33H761.404V543.656H755.429V733.33Z" fill="#A6ADC9"/>
<path fill-rule="evenodd" clip-rule="evenodd" d="M857.912 571.672C823.862 552.628 750.916 545.659 735.493 546.712C727.26 547.271 717.972 586.571 740.218 598.282C769.163 613.516 842.173 610.014 861.296 607.381C868.447 606.396 878.335 583.093 857.912 571.672Z" fill="#14181A"/>
<path fill-rule="evenodd" clip-rule="evenodd" d="M803.729 704.731C803.027 710.662 803.933 715.004 803.933 715.004C804.057 715.285 809.897 715.167 813.006 711.795C813.006 711.795 812.893 709.082 813.981 705.308C809.952 701.314 804.294 704.781 803.729 704.731Z" fill="#2B2D38"/>
<path fill-rule="evenodd" clip-rule="evenodd" d="M832.052 600.684C816.393 650.059 800.709 706.466 800.709 706.466C804.93 705.164 810.242 707.439 811.932 710.775C811.932 710.775 838.683 657.064 865.453 605.21C876.373 584.057 842.378 568.128 832.052 600.684Z" fill="#14181A"/>
<path fill-rule="evenodd" clip-rule="evenodd" d="M814.585 711.749C813.128 710.24 812.855 709.628 812.855 709.628C812.855 709.628 805.732 707.732 803.623 713.127C803.623 713.127 802.714 718.718 805.223 721.767C806.233 722.998 811.382 729.029 813.957 730.298C816.025 731.313 819.235 731.174 822.859 730.612C826.483 730.05 830.748 727.503 830.528 725.228C830.09 720.714 817.393 714.647 814.585 711.749Z" fill="#14181A"/>
<path fill-rule="evenodd" clip-rule="evenodd" d="M733.231 704.713C731.504 708.398 729.117 712.365 729.117 712.365C732.226 715.74 740.021 718.743 740.142 718.456C740.142 718.456 741.72 712.773 742.706 706.958C742.141 707.005 737.259 700.716 733.231 704.713Z" fill="#14181A"/>
<path fill-rule="evenodd" clip-rule="evenodd" d="M760.681 617.45C745.021 666.822 731.871 707.865 731.871 707.865C736.092 706.566 741.158 709.021 742.846 712.355C742.846 712.355 762.702 676.605 789.475 624.753C800.392 603.598 771.007 584.888 760.681 617.45Z" fill="#14181A"/>
<path fill-rule="evenodd" clip-rule="evenodd" d="M736.367 709.818C736.331 709.801 736.298 709.786 736.262 709.771C733.636 708.691 730.653 709.555 728.627 711.649L728.547 711.735C725.738 714.637 713.042 720.704 712.604 725.215C712.384 727.493 716.646 730.037 720.273 730.599C723.896 731.164 727.107 731.303 729.175 730.285C731.749 729.016 736.995 723.073 737.909 721.754C738.892 720.346 739.269 717.388 739.415 715.323C739.58 712.978 738.399 710.697 736.367 709.818Z" fill="#14181A"/>
<path fill-rule="evenodd" clip-rule="evenodd" d="M739.555 386.875C740.271 392.238 738.104 402.422 737.072 409.962C741.183 419.83 756.192 419.836 757.236 414.021C754.862 407.759 757.385 396.131 757.415 395.033C753.72 395.622 740.8 387.863 739.555 386.875Z" fill="#FF9BA0"/>
<path fill-rule="evenodd" clip-rule="evenodd" d="M757.379 360.353C747.995 361.019 742.323 369.772 742.929 379.761C742.934 379.858 743.559 390.126 743.559 390.126C744.019 397.657 751.338 409.702 761.57 406.927C775.916 403.043 777.161 373.987 776.475 370.816C774.567 361.942 766.116 359.741 757.379 360.353Z" fill="#FF9BA0"/>
<path fill-rule="evenodd" clip-rule="evenodd" d="M757.528 416.711C756.853 416.407 756.713 408.382 756.713 408.382C756.713 408.382 752.836 409.074 747.051 407.935C740.071 406.554 737.039 404.625 737.039 404.625C737.039 404.625 735.285 412.319 733.79 412.887C731.24 413.863 724.296 415.647 721.052 416.469C709.534 419.403 704.503 436.932 703.055 449.214C702.747 451.811 693.321 519.038 693.321 584.008C695.037 584.147 766.072 605.844 796.749 553.416C782.332 530.876 783.808 463.321 783.527 456.943C782.924 443.254 786.638 433.294 772.482 423.991C770.525 422.704 760.802 418.214 757.528 416.711Z" fill="url(#paint2_linear_321_460)"/>
<path fill-rule="evenodd" clip-rule="evenodd" d="M885.401 508.277C884.485 507.943 873.732 508.366 871.072 508.751C868.822 509.052 866.573 509.511 864.505 510.117C864.389 510.162 863.75 518.03 864.197 520.494C870.252 520.145 875.943 518.92 879.71 518.432C884.394 517.823 886.095 516.504 884.851 515.386C884.597 515.164 888.477 514.309 886.999 512.286C886.999 512.286 888.472 511.025 888.249 509.966C887.915 508.384 885.985 508.493 885.401 508.277Z" fill="#FF9BA0"/>
<path fill-rule="evenodd" clip-rule="evenodd" d="M779.944 431.609C774.294 420.957 753.899 437.895 753.899 454.717C753.899 470.433 785.867 505.37 796.782 514.67C807.119 523.739 847.745 522.459 864.742 523.077L865.767 507.997C858.861 506.891 816.575 501.17 812.023 499.149C811.439 497.946 785.289 441.684 779.944 431.609Z" fill="#FFC800"/>
<path fill-rule="evenodd" clip-rule="evenodd" d="M739.449 346.834C728.487 356.066 725.965 373.027 733.245 383.655C738.361 391.124 735.324 394.283 739.606 395.191C760.376 399.614 764.834 380.028 773.683 374.849C777.621 372.536 784.348 370.332 780.253 360.133C774.768 346.461 751.862 336.383 739.449 346.834Z" fill="#2B2D38"/>
<path fill-rule="evenodd" clip-rule="evenodd" d="M641.004 733.077H644.928L679.958 623.523H676.034L641.004 733.077Z" fill="#14181A"/>
<path fill-rule="evenodd" clip-rule="evenodd" d="M698.828 733.077H702.752L737.782 623.523H733.861L698.828 733.077Z" fill="#14181A"/>
<path fill-rule="evenodd" clip-rule="evenodd" d="M771.076 603.967C756.388 603.967 740.567 592.723 737.863 577.22L722.484 508.612C717.883 482.221 694.238 460.828 669.674 460.828C645.107 460.828 628.922 482.221 633.526 508.612L658.616 611.74C659.772 618.201 665.04 622.871 671.167 622.865L803.072 622.718C807.888 622.709 811.787 618.514 811.787 613.344C811.787 608.161 807.88 603.967 803.061 603.967H771.076Z" fill="#4D94E5"/>
<path fill-rule="evenodd" clip-rule="evenodd" d="M803.548 604.103H771.563C756.875 604.103 741.054 592.8 738.35 577.291L722.971 508.615C718.37 482.223 694.725 460.828 670.161 460.828C655.846 460.828 644.418 468.12 638.25 479.402C643.829 475.89 650.517 473.882 658.004 473.882C682.569 473.882 706.213 495.262 710.814 521.654L726.193 590.23C728.9 605.741 744.719 616.929 759.409 616.929H791.391C794.995 616.929 798.085 619.342 799.418 622.691L803.559 622.753C808.375 622.75 812.274 618.585 812.274 613.412C812.274 608.235 808.367 604.103 803.548 604.103Z" fill="url(#paint3_linear_321_460)"/>
<path fill-rule="evenodd" clip-rule="evenodd" d="M718.103 623.523L753.136 733.077H757.057L722.027 623.523H718.103Z" fill="#14181A"/>
<path fill-rule="evenodd" clip-rule="evenodd" d="M828.691 494.635H922.637L940.241 410.852H846.295L828.691 494.635Z" fill="white"/>
<path fill-rule="evenodd" clip-rule="evenodd" d="M881.494 478.903C866.337 478.903 854.048 465.875 854.048 449.803C854.048 433.732 866.337 420.703 881.494 420.703C896.653 420.703 908.941 433.732 908.941 449.803C908.941 465.875 896.653 478.903 881.494 478.903Z" fill="url(#paint4_linear_321_460)"/>
<path fill-rule="evenodd" clip-rule="evenodd" d="M873.78 411.753C871.159 415.06 868.312 418.269 865.886 420.709C863.542 423.072 862.178 424.626 860.644 425.067C856.666 424.091 849.625 413.423 846.028 406.354C846.005 406.309 845.973 406.273 845.95 406.231C845.89 406.127 845.828 406.027 845.758 405.932C845.705 405.858 845.65 405.791 845.592 405.724C845.524 405.646 845.453 405.571 845.377 405.5C845.307 405.434 845.234 405.373 845.158 405.315C845.083 405.257 845.006 405.203 844.926 405.153C844.838 405.099 844.749 405.05 844.658 405.006C844.579 404.969 844.5 404.933 844.418 404.903C844.312 404.863 844.205 404.832 844.096 404.805C844.049 404.793 844.006 404.775 843.958 404.764C842.579 404.433 840.412 405.396 838.495 404.603C836.31 403.699 842.479 409.052 843.849 409.33C846.635 414.57 852.523 430.109 860.037 431.258C860.202 431.291 860.366 431.301 860.551 431.301C862.823 431.301 866.04 429.209 870.172 425.056C872.577 422.638 875.291 419.527 878.301 415.732C879.34 414.42 879.176 412.458 877.932 411.363C876.678 410.257 874.827 410.441 873.78 411.753Z" fill="#FFD2B0"/>
<path fill-rule="evenodd" clip-rule="evenodd" d="M845.47 407.174C843.199 410.291 841.74 409.07 838.659 406.489C835.577 403.908 832.124 400.486 834.954 396.222C837.783 391.957 843.18 402.995 844.255 398.178C845.329 393.362 847.742 404.057 845.47 407.174Z" fill="#FFD2B0"/>
<path fill-rule="evenodd" clip-rule="evenodd" d="M911.697 466.944C915.244 465.853 915.754 467.76 916.832 471.79C917.91 475.819 918.827 480.763 914.2 482.43C909.573 484.098 911.258 471.767 907.748 474.987C904.238 478.207 908.15 468.034 911.697 466.944Z" fill="#FFD2B0"/>
<path fill-rule="evenodd" clip-rule="evenodd" d="M878.36 386.929C874.434 384.704 873.825 392.819 875.089 395.469C876.453 398.324 880.469 400.808 881.577 398.493C883.016 395.485 883.652 389.929 878.36 386.929Z" fill="#2B2D38"/>
<path fill-rule="evenodd" clip-rule="evenodd" d="M878.302 415.726C875.29 419.521 872.577 422.633 870.172 425.051L865.886 420.703C868.311 418.264 871.159 415.054 873.78 411.747C874.827 410.436 876.679 410.251 877.933 411.357C879.176 412.452 879.341 414.415 878.302 415.726Z" fill="#F5A623"/>
<path fill-rule="evenodd" clip-rule="evenodd" d="M879.354 416.746C876.848 419.275 874.251 421.975 871.751 424.624L865.843 418.63C868.88 415.442 871.697 412.557 873.705 410.527C875.336 408.879 877.916 408.937 879.477 410.657C881.045 412.361 880.984 415.098 879.354 416.746Z" fill="#FBB116"/>
<path fill-rule="evenodd" clip-rule="evenodd" d="M890.8 406.263C890.831 409.006 890.514 412.475 889.054 414.915C887.266 417.918 886.916 418.525 886.875 418.59C886.227 419.729 885.076 420.368 883.893 420.368C883.287 420.368 882.67 420.195 882.116 419.848C880.47 418.807 879.926 416.563 880.912 414.828C880.912 414.828 881.19 414.319 883.174 411.012C883.513 410.448 883.709 409.364 883.791 408.095C883.893 406.556 883.821 404.723 883.617 403.205C883.328 401.2 884.645 399.335 886.545 399.042C888.447 398.738 890.204 400.115 890.492 402.121C890.574 402.707 890.771 404.3 890.8 406.263Z" fill="#FFD2B0"/>
<path fill-rule="evenodd" clip-rule="evenodd" d="M899.314 412.282C897.592 422.693 894.231 448.834 894.96 459.352H870.201C870.201 459.352 871.694 420.611 874.039 411.171C874.322 410.041 875.298 409.258 876.406 409.258H896.9C898.42 409.258 899.575 410.702 899.314 412.282Z" fill="#F8CA1C"/>
<path fill-rule="evenodd" clip-rule="evenodd" d="M893.884 476.352C893.884 476.352 896.9 470.52 894.96 459.352H870.201C870.201 459.352 869.85 467.853 870.418 476.352C872.025 477.462 875.406 478.052 880.562 478.122C885.718 478.193 890.159 477.603 893.884 476.352Z" fill="#2B2D38"/>
<path fill-rule="evenodd" clip-rule="evenodd" d="M890.8 406.263C889.064 407.455 886.998 408.149 884.778 408.149C884.448 408.149 884.119 408.139 883.792 408.095C883.893 406.556 883.821 404.723 883.617 403.205C883.328 401.2 884.645 399.335 886.545 399.042C888.447 398.738 890.204 400.115 890.492 402.121C890.574 402.707 890.771 404.3 890.8 406.263Z" fill="#F5A623"/>
<path fill-rule="evenodd" clip-rule="evenodd" d="M875.198 394.702C875.198 401.143 878.544 406.365 884.577 406.365C889.331 406.365 896.661 401.143 896.661 394.702C896.661 388.262 891.709 383.039 885.604 383.039C879.497 383.039 875.198 388.262 875.198 394.702Z" fill="#FFD2B0"/>
<path fill-rule="evenodd" clip-rule="evenodd" d="M890.685 476.92C891.755 472.847 892.761 464.621 892.271 459.389L892.783 459.336C893.186 463.645 892.287 472.556 891.117 476.994C891.086 477.246 890.646 477.205 890.685 476.92Z" fill="#424261"/>
<path fill-rule="evenodd" clip-rule="evenodd" d="M895.343 385.383C892.066 382.198 889.563 389.9 890.164 392.798C890.812 395.92 894.117 399.379 895.735 397.427C897.839 394.892 899.764 389.675 895.343 385.383Z" fill="#2B2D38"/>
<path fill-rule="evenodd" clip-rule="evenodd" d="M884.747 405.838C886.754 404.147 882.815 401.968 881.196 402.074C879.454 402.189 877.295 403.872 878.207 405.016C879.392 406.502 882.039 408.117 884.747 405.838Z" fill="#2B2D38"/>
<path fill-rule="evenodd" clip-rule="evenodd" d="M893.14 387.294C890.45 389.318 876.566 389.631 874.232 386.023C874.232 386.023 875.633 386.336 876.99 385.889C876.99 385.889 874.318 384.726 873.384 383.384C873.384 383.384 876.693 383.596 879.788 382.237C882.884 380.878 889.136 379.014 893.173 382.683C897.209 386.351 893.14 387.294 893.14 387.294Z" fill="#2B2D38"/>
<path fill-rule="evenodd" clip-rule="evenodd" d="M897.399 398.113C897.169 399.359 896.432 400.365 895.457 400.94C894.315 401.612 892.953 400.513 893.202 399.158L893.883 395.48C894.134 394.125 895.789 393.647 896.607 394.724C897.305 395.642 897.63 396.867 897.399 398.113Z" fill="#FFD2B0"/>
<path fill-rule="evenodd" clip-rule="evenodd" d="M880.714 409.258C880.096 411.53 882.134 412.872 885.703 412.341C888.196 411.971 890.872 410.78 892.917 409.258H880.714Z" fill="#FFD2B0"/>
<path fill-rule="evenodd" clip-rule="evenodd" d="M900.674 425.121L908.345 441.979C908.751 442.872 909.027 443.826 909.164 444.809L912.935 471.967H915.878L913.993 441.154L905.608 421.75L900.674 425.121Z" fill="#FFD2B0"/>
<path fill-rule="evenodd" clip-rule="evenodd" d="M906.085 422.796L901.11 426.157C899.095 422.688 896.793 418.925 894.593 415.478C893.689 414.057 894.038 412.127 895.385 411.162C896.742 410.208 898.562 410.577 899.476 411.997C901.408 415.011 903.835 418.904 906.085 422.796Z" fill="#F5A623"/>
<path fill-rule="evenodd" clip-rule="evenodd" d="M893.659 416.108C895.652 419.103 897.702 422.283 899.668 425.393L906.565 420.724C904.174 416.975 901.942 413.567 900.345 411.164C899.049 409.214 896.507 408.743 894.659 410.11C892.807 411.46 892.363 414.158 893.659 416.108Z" fill="#F8CA1C"/>
<path fill-rule="evenodd" clip-rule="evenodd" d="M881.778 478.082H882.29L882.162 459.359H881.649L881.778 478.082Z" fill="#424261"/>
<path fill-rule="evenodd" clip-rule="evenodd" d="M881.879 473.671C880.322 473.671 879.055 472.335 879.055 470.693L879.071 459.375H879.585L879.569 470.693C879.569 472.036 880.605 473.129 881.879 473.129V473.671Z" fill="#424261"/>
<path fill-rule="evenodd" clip-rule="evenodd" d="M917.108 488.867H844.61C843.694 488.867 842.951 488.081 842.951 487.109C842.951 486.138 843.694 485.352 844.61 485.352H917.108C918.024 485.352 918.766 486.138 918.766 487.109C918.766 488.081 918.024 488.867 917.108 488.867Z" fill="#D2D7E7"/>
<path fill-rule="evenodd" clip-rule="evenodd" d="M872.018 491.915C869.517 491.915 867.489 489.766 867.489 487.114C867.489 484.462 869.517 482.312 872.018 482.312C874.519 482.312 876.546 484.462 876.546 487.114C876.546 489.766 874.519 491.915 872.018 491.915Z" fill="#4D94E5"/>
<path fill-rule="evenodd" clip-rule="evenodd" d="M893.348 487.114C893.348 489.766 891.321 491.915 888.82 491.915C886.318 491.915 884.29 489.766 884.29 487.114C884.29 484.462 886.318 482.312 888.82 482.312C891.321 482.312 893.348 484.462 893.348 487.114Z" fill="#4D94E5"/>
<path fill-rule="evenodd" clip-rule="evenodd" d="M887.117 488.603V485.625C887.117 485.15 887.592 484.845 887.991 485.065L890.665 486.554C891.092 486.791 891.092 487.437 890.665 487.673L887.991 489.164C887.592 489.383 887.117 489.079 887.117 488.603Z" fill="white"/>
<path fill-rule="evenodd" clip-rule="evenodd" d="M873.244 489.158H870.792C870.403 489.158 870.087 488.823 870.087 488.411V485.81C870.087 485.398 870.403 485.062 870.792 485.062H873.244C873.634 485.062 873.949 485.398 873.949 485.81V488.411C873.949 488.823 873.634 489.158 873.244 489.158Z" fill="white"/>
<path d="M320.387 904.116C424.734 904.116 509.324 813.471 509.324 701.656C509.324 589.84 424.734 499.195 320.387 499.195C216.04 499.195 131.45 589.84 131.45 701.656C131.45 813.471 216.04 904.116 320.387 904.116Z" fill="url(#paint5_linear_321_460)"/>
<mask id="mask3_321_460" style="mask-type:luminance" maskUnits="userSpaceOnUse" x="131" y="499" width="379" height="406">
<g opacity="0.167746">
<path d="M320.387 904.116C424.734 904.116 509.324 813.471 509.324 701.656C509.324 589.84 424.734 499.195 320.387 499.195C216.04 499.195 131.45 589.84 131.45 701.656C131.45 813.471 216.04 904.116 320.387 904.116Z" fill="url(#paint6_linear_321_460)"/>
</g>
</mask>
<g mask="url(#mask3_321_460)">
<path opacity="0.167746" fill-rule="evenodd" clip-rule="evenodd" d="M293.134 831.793V734.665H383.857V831.793H425.049V636.269H393.785V604.739H522.138V473.023L684.187 646.671L657.03 1102.46L53.6021 831.793H293.134Z" fill="url(#paint7_linear_321_460)"/>
</g>
<path fill-rule="evenodd" clip-rule="evenodd" d="M249.995 605.035C249.995 605.035 238.345 610.23 252.606 647.779C266.859 685.322 274.193 680.414 274.193 680.414L283.64 679.03L300.165 654.4L289.652 645.282L287.726 646.232C287.726 646.232 285.103 645.173 284.621 642.569C284.137 639.963 279.305 629.054 273.65 607.031C264.984 573.29 252.233 604.023 249.995 605.035Z" fill="url(#paint8_linear_321_460)"/>
<path fill-rule="evenodd" clip-rule="evenodd" d="M297.148 655.117C297.148 655.117 317.018 666.75 329.099 668.19C337.192 669.151 320.478 678.818 303.85 680.743C287.233 682.666 280.78 681.876 277.189 675.61C273.598 669.342 297.148 655.117 297.148 655.117Z" fill="#FF9BA0"/>
<path fill-rule="evenodd" clip-rule="evenodd" d="M276.824 649.692L282.512 645.166L284.885 643.508C285.714 645.45 287.717 646.263 287.717 646.263L282.876 648.735L277.697 652.816L272.603 660.526L276.824 649.692Z" fill="#F8CA1C"/>
<path fill-rule="evenodd" clip-rule="evenodd" d="M268.885 695.769L224.801 694.746L206.472 628.994C206.472 628.994 194.583 589.231 217.368 588.719C240.155 588.212 266.643 592.726 266.643 592.726C266.643 592.726 274.243 602.747 268.885 695.769Z" fill="url(#paint9_linear_321_460)"/>
<path fill-rule="evenodd" clip-rule="evenodd" d="M244.308 597.062C244.308 597.062 264.277 638.398 258.609 684.148C258.164 687.749 254.582 690.329 254.582 690.329L249.667 685.174C249.667 685.174 250.065 633.397 244.308 597.062Z" fill="#4A90E2"/>
<path fill-rule="evenodd" clip-rule="evenodd" d="M243.741 596.032L242.657 604.182L228.656 591.723L230.278 588.68L243.741 596.032Z" fill="#F8CA1C"/>
<path fill-rule="evenodd" clip-rule="evenodd" d="M247.547 591.258L249.713 593.22L249.835 601.863L244.308 596.7L247.547 591.258Z" fill="#F8CA1C"/>
<path fill-rule="evenodd" clip-rule="evenodd" d="M261.996 559.008C261.967 559.623 264.006 565.029 264.38 566.029C264.758 567.031 265.28 568.295 265.108 568.649C264.935 569.003 263.976 570.024 263.548 570.396C263.118 570.764 261.488 572.309 261.21 569.729C260.935 567.145 261.996 559.008 261.996 559.008Z" fill="#FF9BA0"/>
<path fill-rule="evenodd" clip-rule="evenodd" d="M238.066 555.785C236.274 555.697 234.76 557.18 234.679 559.093C234.599 561.018 235.982 562.638 237.776 562.73" fill="#E9D6B8"/>
<path fill-rule="evenodd" clip-rule="evenodd" d="M256.348 917.471H267.705V898.93H256.348V917.471Z" fill="#F8E71C"/>
<path fill-rule="evenodd" clip-rule="evenodd" d="M175.679 917.471H184.869V898.93H175.679V917.471Z" fill="#F8E71C"/>
<path fill-rule="evenodd" clip-rule="evenodd" d="M257.09 922.499H265.386V919.801L268.988 922.499H289.901C289.901 922.499 289.537 918.833 275.481 918.255C271.871 918.107 269.348 912.847 269.348 912.847C269.348 912.847 267.551 911.108 264.844 915.162C264.143 916.218 256.553 914.196 256.553 914.196C256.553 914.196 255.834 919.605 257.09 922.499Z" fill="#081832"/>
<path fill-rule="evenodd" clip-rule="evenodd" d="M267.523 693.812L268.511 794.232L248.7 805.954C248.7 805.954 236.809 781.998 235.326 751.412C233.838 720.832 267.523 693.812 267.523 693.812Z" fill="black"/>
<path fill-rule="evenodd" clip-rule="evenodd" d="M267.111 694.293L223.518 804.402L215.593 816.126L185.175 912.763L173.861 908.216C173.861 908.216 170.026 853.847 181.914 832.434C193.801 811.029 199.741 799.3 199.741 799.3L225.997 691.234L267.111 694.293Z" fill="#2B2D38"/>
<path fill-rule="evenodd" clip-rule="evenodd" d="M255.237 911.35C251.651 891.654 244.026 855.021 243.754 842.354C243.261 818.909 246.73 802.595 246.73 802.595L268.523 794.438L268.35 911.35H255.237Z" fill="black"/>
<path fill-rule="evenodd" clip-rule="evenodd" d="M186.057 925.804H180.443L178.673 923.9L177.911 919.261L176.128 921.171L170.261 914.891C171.283 911.887 175.361 908.609 175.361 908.609C175.361 908.609 179.394 915.788 180.584 915.573C185.177 914.754 185.304 917.351 185.304 917.351C185.304 917.351 183.625 922.954 186.057 925.804Z" fill="#081832"/>
<path fill-rule="evenodd" clip-rule="evenodd" d="M180.495 918.93C181.575 920.219 183.071 921.507 184.829 921.576C198.885 922.156 199.244 925.826 199.244 925.826H180.495V918.93Z" fill="#081832"/>
<path fill-rule="evenodd" clip-rule="evenodd" d="M320.573 593.258L316.396 589.451C316.396 589.451 314.332 587.744 312.609 584.901C310.888 582.052 311.872 579.293 314.099 577.017C316.33 574.745 318.004 574.484 318.004 574.484C318.004 574.484 321.603 576.193 321.149 579.641C320.683 583.085 323.932 590.695 322.702 591.246C321.468 591.793 320.573 593.258 320.573 593.258Z" fill="#FF9BA0"/>
<path fill-rule="evenodd" clip-rule="evenodd" d="M319.258 575.181L315.102 570.379L311.046 566.102L310.529 567.354L313.011 570.82L314.337 578.064L315.977 577.1L319.258 575.181Z" fill="#FF9BA0"/>
<path fill-rule="evenodd" clip-rule="evenodd" d="M311.594 572.48L307.125 569.977L306.315 571.031L310.306 574.351L313.198 579.227L315.99 576.982L311.594 572.48Z" fill="#FF9BA0"/>
<path fill-rule="evenodd" clip-rule="evenodd" d="M305.713 573.195L309.392 574.949L311.983 575.753L313.767 578.303L312.103 580.84L310.26 578.027L305.782 574.834L305.713 573.195Z" fill="#FF9BA0"/>
<path fill-rule="evenodd" clip-rule="evenodd" d="M305.111 577.07L312.143 579.001L313.296 580.901L312.249 582.71L309.396 580.592L305.614 578.311L305.111 577.07Z" fill="#FF9BA0"/>
<path fill-rule="evenodd" clip-rule="evenodd" d="M324.763 592.592C322.484 590.114 322.987 586.434 322.987 586.434C322.987 586.434 324.019 577.23 322.759 575.713C321.498 574.194 320.711 570.262 320.711 570.262C320.711 570.262 319.633 568.794 319.175 572.518C318.879 574.95 319.307 577.128 319.307 577.128C319.307 577.128 316.984 582.151 317.161 583.779C317.514 587.135 323.155 593.034 323.155 593.034C323.155 593.034 325.055 592.909 324.763 592.592Z" fill="#FF9BA0"/>
<path fill-rule="evenodd" clip-rule="evenodd" d="M262.781 545.36C262.781 545.36 265.894 579.111 258.788 583.075C258.478 583.241 253.417 583.476 250.77 586.026C248.279 588.433 248.17 591.142 247.288 592.211C247.003 592.559 245.976 594.833 245.333 595.438C242.65 597.953 240.476 594.738 238.955 594C235.267 592.2 231.494 591.017 231.672 589.301C231.868 587.421 237.182 575.165 236.988 572.64C236.424 565.242 228.968 551.575 241.021 543.262C244.539 540.836 261.927 543.186 262.781 545.36Z" fill="#FF9BA0"/>
<path fill-rule="evenodd" clip-rule="evenodd" d="M240.478 541.869C246.329 536.963 258.087 538.3 266.1 546.525C266.1 546.525 265.769 548.529 262.988 550.151C262.988 550.151 258.325 543.693 250.726 544.603C242.753 545.564 248.232 549.706 246.374 551.783C244.812 553.53 243.349 555.013 243.349 555.013L242.14 559.762L240.049 560.008C240.049 560.008 238.934 554.901 237.873 556.404C236.585 558.234 237.151 562.061 237.18 562.606C237.212 563.154 237.282 564.056 237.035 564.209C236.838 564.325 237.402 567.263 236.803 572.228C235.822 572.243 234.61 570.785 234.025 567.637C232.705 560.556 233.343 547.856 240.478 541.869Z" fill="black"/>
<path fill-rule="evenodd" clip-rule="evenodd" d="M259.359 568.273C259.359 568.273 263.144 567.285 263.535 567.4C263.928 567.51 264.892 567.645 264.914 568.056C264.939 568.465 264.346 569.516 262.463 570.636C262.005 570.906 262.276 569.879 259.359 568.273Z" fill="#FF9BA0"/>
<path fill-rule="evenodd" clip-rule="evenodd" d="M234.074 664.148L235.195 666.276C235.23 666.38 235.278 666.472 235.32 666.558L234.202 664.429C234.152 664.345 234.112 664.248 234.074 664.148Z" fill="#9EA4A7"/>
<path fill-rule="evenodd" clip-rule="evenodd" d="M187.671 703.148L188.787 705.28C187.834 705.768 186.918 706.323 186.043 706.917L184.925 704.787C185.796 704.192 186.713 703.643 187.671 703.148Z" fill="#A1A9AC"/>
<mask id="mask4_321_460" style="mask-type:luminance" maskUnits="userSpaceOnUse" x="237" y="655" width="37" height="30">
<path d="M272.24 657.922C272.9 661.689 271.214 666.004 268.045 669.698C265.637 672.504 262.37 674.951 258.622 676.517C253.544 678.642 248.738 678.675 245.355 677.045C244.362 676.58 242.969 676.587 241.503 677.202C240.396 677.669 239.431 678.389 238.718 679.216C237.907 680.163 237.424 681.248 237.427 682.246L238.548 684.379C238.545 683.376 239.031 682.29 239.84 681.347C240.555 680.517 241.517 679.796 242.623 679.33C244.09 678.714 245.489 678.711 246.477 679.177C249.862 680.805 254.671 680.771 259.746 678.651C263.489 677.081 266.76 674.635 269.166 671.825C272.334 668.134 274.019 663.82 273.361 660.049C273.205 659.154 272.925 658.341 272.54 657.603C272.469 657.466 272.39 657.323 272.313 657.179C272.016 656.616 271.716 656.044 271.419 655.477C271.804 656.211 272.085 657.028 272.24 657.922Z" fill="#9EA4A7"/>
</mask>
<g mask="url(#mask4_321_460)">
<path fill-rule="evenodd" clip-rule="evenodd" d="M271.419 655.477L272.54 657.603C272.845 658.184 273.083 658.805 273.241 659.482L272.119 657.354C271.962 656.677 271.72 656.056 271.419 655.477Z" fill="#9EA4A7"/>
</g>
<mask id="mask5_321_460" style="mask-type:luminance" maskUnits="userSpaceOnUse" x="185" y="729" width="3" height="4">
<path d="M185.909 729.872C185.945 730.087 185.946 730.302 185.943 730.521L187.065 732.655C187.065 732.436 187.065 732.214 187.03 731.997C186.986 731.744 186.901 731.511 186.792 731.293L185.667 729.164C185.779 729.376 185.859 729.618 185.909 729.872Z" fill="#9EA4A7"/>
</mask>
<g mask="url(#mask5_321_460)">
<path fill-rule="evenodd" clip-rule="evenodd" d="M185.667 729.164L186.792 731.294C186.879 731.462 186.947 731.639 186.991 731.834L185.875 729.709C185.825 729.509 185.756 729.33 185.667 729.164Z" fill="#9EA4A7"/>
</g>
<mask id="mask6_321_460" style="mask-type:luminance" maskUnits="userSpaceOnUse" x="185" y="729" width="3" height="4">
<path d="M185.909 729.872C185.945 730.087 185.946 730.302 185.943 730.521L187.065 732.655C187.065 732.436 187.065 732.214 187.03 731.997C186.986 731.744 186.901 731.511 186.792 731.293L185.667 729.164C185.779 729.376 185.859 729.618 185.909 729.872Z" fill="#A1A9AC"/>
</mask>
<g mask="url(#mask6_321_460)">
<path fill-rule="evenodd" clip-rule="evenodd" d="M185.875 729.711L186.991 731.836C187.007 731.89 187.021 731.947 187.03 731.999C187.06 732.183 187.065 732.365 187.065 732.548L185.943 730.417C185.946 730.235 185.939 730.053 185.909 729.875C185.894 729.818 185.885 729.764 185.875 729.711Z" fill="#A1A9AC"/>
</g>
<mask id="mask7_321_460" style="mask-type:luminance" maskUnits="userSpaceOnUse" x="185" y="729" width="3" height="4">
<path d="M185.909 729.872C185.945 730.087 185.946 730.302 185.943 730.521L187.065 732.655C187.065 732.436 187.065 732.214 187.03 731.997C186.986 731.744 186.901 731.511 186.792 731.293L185.667 729.164C185.779 729.376 185.859 729.618 185.909 729.872Z" fill="#A6AEB1"/>
</mask>
<g mask="url(#mask7_321_460)">
<path fill-rule="evenodd" clip-rule="evenodd" d="M185.943 730.414L187.065 732.546V732.654L185.943 730.52V730.414Z" fill="#A6AEB1"/>
</g>
<mask id="mask8_321_460" style="mask-type:luminance" maskUnits="userSpaceOnUse" x="183" y="733" width="3" height="4">
<path d="M183.598 734.353L184.716 736.478C184.913 736.332 185.085 736.175 185.316 735.958L184.193 733.828C183.965 734.049 183.789 734.196 183.598 734.353Z" fill="#AAB3B6"/>
</mask>
<g mask="url(#mask8_321_460)">
<path fill-rule="evenodd" clip-rule="evenodd" d="M184.193 733.828L185.317 735.959C185.295 735.978 185.274 735.998 185.249 736.021L184.127 733.894C184.152 733.872 184.172 733.848 184.193 733.828Z" fill="#AAB3B6"/>
</g>
<path fill-rule="evenodd" clip-rule="evenodd" d="M202.57 725.072L203.692 727.197C202.828 726.47 202.753 726.374 202.689 726.263L201.566 724.133C201.63 724.242 201.706 724.34 202.57 725.072Z" fill="#959B9D"/>
<path fill-rule="evenodd" clip-rule="evenodd" d="M204.328 725.149L205.449 727.277C205.172 727.263 204.986 727.245 204.812 727.213C204.45 727.141 204.152 727.041 203.892 726.898L202.77 724.773C203.028 724.905 203.323 725.012 203.694 725.088C203.867 725.117 204.049 725.138 204.328 725.149Z" fill="#F5A623"/>
<path fill-rule="evenodd" clip-rule="evenodd" d="M205.184 725.422L206.306 727.553C206.098 727.572 205.889 727.578 205.697 727.572L204.576 725.444C204.77 725.45 204.979 725.444 205.184 725.422Z" fill="#F5A623"/>
<path fill-rule="evenodd" clip-rule="evenodd" d="M213.183 743.112C213.183 744.784 211.727 746.14 209.93 746.14H190.226C188.43 746.14 186.974 744.784 186.974 743.112V731.373C186.974 729.702 188.43 728.347 190.226 728.347H209.93C211.727 728.347 213.183 729.702 213.183 731.373V743.112ZM214.001 723.664H186.061C184.152 723.664 182.606 726.159 182.606 727.879V746.101C182.606 747.822 184.152 749.215 186.061 749.215H214.001C215.909 749.215 217.455 747.822 217.455 746.101V727.879C217.455 726.159 215.909 723.664 214.001 723.664Z" fill="#657786"/>
<path fill-rule="evenodd" clip-rule="evenodd" d="M151.724 800.353H247.663V734.969H151.724V800.353Z" fill="#4D94E5"/>
<path fill-rule="evenodd" clip-rule="evenodd" d="M149.845 734.328V758.108L199.693 763.403L249.541 758.531V734.328H149.845Z" fill="#70A9EA"/>
<path fill-rule="evenodd" clip-rule="evenodd" d="M195.899 769.369H206.056V757.438H195.899V769.369Z" fill="#D0D2D3"/>
<path fill-rule="evenodd" clip-rule="evenodd" d="M202.923 762.048C202.923 763.212 202.053 764.155 200.981 764.155C199.907 764.155 199.036 763.212 199.036 762.048C199.036 760.883 199.907 759.938 200.981 759.938C202.053 759.938 202.923 760.883 202.923 762.048Z" fill="#221F1F"/>
<path fill-rule="evenodd" clip-rule="evenodd" d="M200.052 766.354H201.954V762.273H200.052V766.354Z" fill="#221F1F"/>
<path fill-rule="evenodd" clip-rule="evenodd" d="M180.265 671.72L199.392 728.67C199.392 728.67 195.229 730.031 192.812 727.729C186.253 721.484 174.84 704.485 170.855 695.171C165.404 682.428 162.435 668.664 162.435 668.664L180.265 671.72Z" fill="#FF9BA0"/>
<path fill-rule="evenodd" clip-rule="evenodd" d="M193.325 728.71C194.526 731.096 202.168 733.432 202.168 733.432L207.618 726.873H204.149L201.672 720.906L194.24 723.966C194.24 723.966 192.593 727.249 193.325 728.71Z" fill="#FF9BA0"/>
<path fill-rule="evenodd" clip-rule="evenodd" d="M209.241 626.6L183.485 668.906L180.015 669.418L181.007 672.986L162.35 671.451L158.221 654.124L194.379 597.035C194.379 597.035 198.24 593.279 205.139 590.727C210.027 588.917 221.178 609.887 213.662 620.351C211.425 623.464 209.694 625.781 209.241 626.6Z" fill="url(#paint10_linear_321_460)"/>
<path fill-rule="evenodd" clip-rule="evenodd" d="M164.241 660.922C164.241 660.922 175.774 666.855 181.882 669.713L180.371 669.939L181.362 673.506L174.917 672.922L165.877 670.634L165.382 666.538H168.183L164.241 660.922Z" fill="#F8CA1C"/>
<path fill-rule="evenodd" clip-rule="evenodd" d="M409.33 545.959C405.925 543.266 405.342 541.093 407.582 539.439C410.941 536.959 434.468 538.45 433.785 547.437C433.102 556.424 441.673 567.117 422.962 577.377C410.488 584.217 405.944 573.745 409.33 545.959Z" fill="black"/>
<path fill-rule="evenodd" clip-rule="evenodd" d="M406.541 542.883L400.556 551.176L400.612 554.309L395.413 561.851L397.726 566.166L396.643 579.334C396.643 579.334 395.738 586.419 401.94 583.834L408.147 581.248C408.147 581.248 413.377 598.915 409.762 602.062C406.148 605.209 403.59 608.789 405.06 610.74C406.399 612.519 409.944 611.216 413.585 610.785C420.067 610.017 424.367 611.331 427.143 611.473C429.154 611.578 426.37 610.282 425.818 605.84C425.273 601.44 421.861 575.437 421.861 575.437C421.861 575.437 422.961 575.907 424.496 575.198C426.031 574.492 432.927 568.821 430.631 565.551C428.336 562.279 423.315 563.733 421.652 566.841C419.987 569.947 416.944 566.628 417.685 559.856C418.423 553.083 431.051 549.121 416.651 547.037C406.995 545.638 406.541 542.883 406.541 542.883Z" fill="#FF9BA0"/>
<path fill-rule="evenodd" clip-rule="evenodd" d="M407.453 925.853H396.096V907.312H407.453V925.853Z" fill="#F8E71C"/>
<path fill-rule="evenodd" clip-rule="evenodd" d="M488.122 925.853H478.932V907.312H488.122V925.853Z" fill="#F8E71C"/>
<path fill-rule="evenodd" clip-rule="evenodd" d="M406.712 930.882H398.415V928.184L394.813 930.882H373.9C373.9 930.882 374.264 927.215 388.32 926.637C391.93 926.49 394.453 921.23 394.453 921.23C394.453 921.23 396.25 919.491 398.957 923.545C399.658 924.601 407.248 922.579 407.248 922.579C407.248 922.579 407.967 927.987 406.712 930.882Z" fill="#081832"/>
<path fill-rule="evenodd" clip-rule="evenodd" d="M396.278 702.203L395.29 802.623L415.101 814.345C415.101 814.345 426.992 790.389 428.475 759.803C429.963 729.222 396.278 702.203 396.278 702.203Z" fill="black"/>
<path fill-rule="evenodd" clip-rule="evenodd" d="M396.69 702.676L440.284 812.784L448.208 824.509L478.626 921.146L489.94 916.599C489.94 916.599 493.775 862.229 481.887 840.817C470 819.412 464.061 807.682 464.061 807.682L437.804 699.617L396.69 702.676Z" fill="#2B2D38"/>
<path fill-rule="evenodd" clip-rule="evenodd" d="M408.565 919.733C412.15 900.037 419.775 863.403 420.047 850.737C420.541 827.292 417.071 810.978 417.071 810.978L395.278 802.82L395.451 919.733H408.565Z" fill="black"/>
<path fill-rule="evenodd" clip-rule="evenodd" d="M477.744 934.186H483.358L485.128 932.283L485.89 927.643L487.673 929.554L493.54 923.274C492.518 920.27 488.44 916.992 488.44 916.992C488.44 916.992 484.408 924.171 483.217 923.956C478.624 923.137 478.497 925.734 478.497 925.734C478.497 925.734 480.176 931.337 477.744 934.186Z" fill="#081832"/>
<path fill-rule="evenodd" clip-rule="evenodd" d="M483.306 927.312C482.227 928.602 480.731 929.889 478.973 929.959C464.916 930.539 464.557 934.209 464.557 934.209H483.306V927.312Z" fill="#081832"/>
<path fill-rule="evenodd" clip-rule="evenodd" d="M327.243 669.192L340.55 660.922L349.127 661.975C349.127 661.975 350.099 664.128 347.171 665.703C344.243 667.274 340.55 667.755 340.55 667.755L334.848 676.862C334.848 676.862 340.42 680.393 341.894 679.62C343.37 678.842 349.164 675.902 349.164 675.902C349.164 675.902 345.809 683.572 342.229 683.572C338.652 683.572 334.848 683.572 332.164 683.094C329.479 682.614 328.583 674.465 325.901 673.028C323.215 671.588 327.243 669.192 327.243 669.192Z" fill="#FF9BA0"/>
<path fill-rule="evenodd" clip-rule="evenodd" d="M353.597 616.584L320.514 584.164C320.514 584.164 318.314 587.012 319.145 589.617C321.413 596.67 330.609 607.214 335.761 613.188C342.807 621.354 351.837 627.908 351.837 627.908L353.597 616.584Z" fill="#FF9BA0"/>
<path fill-rule="evenodd" clip-rule="evenodd" d="M377.983 611.694L363.563 614.616L351.088 612.422L347.252 628.243L358.226 632.513L409.161 633.407C409.161 633.407 416.748 620.771 420.463 605.43C423.156 594.313 396.366 607.271 393.317 607.733L377.983 611.694Z" fill="#F8CA1C"/>
<path fill-rule="evenodd" clip-rule="evenodd" d="M389.922 669.953L348.456 671.266C348.456 671.266 379.184 691.083 390.343 681.091C401.509 671.094 389.922 669.953 389.922 669.953Z" fill="#FF9BA0"/>
<path fill-rule="evenodd" clip-rule="evenodd" d="M411.513 598.581L424.329 593.836L440.777 606.944C440.777 606.944 447.239 626.296 445.645 634.263C444.051 642.23 438.375 701.861 438.375 701.861L394.61 702.837L388.188 634.311C392.933 614.631 400.132 602.366 409.788 597.517L411.513 598.581Z" fill="#F8CA1C"/>
<path fill-rule="evenodd" clip-rule="evenodd" d="M335.697 678.739L339.663 680.231L355.953 674.481L349.584 662.211L347.45 665.825L341.759 665.58L334.61 676.294L335.697 678.739Z" fill="#FF9BA0"/>
<path fill-rule="evenodd" clip-rule="evenodd" d="M410.739 600.152L409.861 608.921L427.704 598.188L425.646 591.906L410.739 600.152Z" fill="#F8E71C"/>
<path fill-rule="evenodd" clip-rule="evenodd" d="M409.773 597.711L410.651 600.216L407.143 608.359L406.851 601.157L409.773 597.711Z" fill="#F8E71C"/>
<path fill-rule="evenodd" clip-rule="evenodd" d="M410.726 600.938C410.726 600.938 390.757 642.273 396.426 688.023C396.87 691.624 400.452 694.204 400.452 694.204L405.367 689.049C405.367 689.049 404.969 637.272 410.726 600.938Z" fill="#4A90E2"/>
<path fill-rule="evenodd" clip-rule="evenodd" d="M441.672 628.13C433.764 654.399 417.245 676.039 414.133 680.37C411.023 684.704 400.636 693.707 392.916 691.726C388.045 690.477 387.586 687.22 387.586 687.22L390.427 670.272L389.98 670.219L392.827 669.644C392.827 669.644 402.866 652.58 411.252 635.961C419.642 619.348 436.64 607.383 436.64 607.383C436.64 607.383 446.321 612.72 441.672 628.13Z" fill="url(#paint11_linear_321_460)"/>
<path fill-rule="evenodd" clip-rule="evenodd" d="M384.931 691.469C384.931 691.469 387.292 677.991 388.286 670.927L388.881 672.434L391.839 670.484L392.98 677.308L393.259 687.261L389.696 688.833L388.971 685.933L384.931 691.469Z" fill="#F8CA1C"/>
<path fill-rule="evenodd" clip-rule="evenodd" d="M349.145 632.547C349.145 632.547 352.005 619.677 353.247 612.939L353.831 614.35L356.998 612.405L358.01 618.847L358.027 628.286L354.233 629.893L353.551 627.163L349.145 632.547Z" fill="#F8CA1C"/>
<path fill-rule="evenodd" clip-rule="evenodd" d="M391.488 670.375C391.352 668.002 390.21 667.419 388.065 668.627C385.92 669.834 384.647 669.875 384.246 668.748L381.566 689.138L385.078 692.202L388.866 690.346L391.488 670.375Z" fill="#FFC800"/>
<path fill-rule="evenodd" clip-rule="evenodd" d="M356.376 612.55C356.702 610.198 355.699 609.374 353.366 610.077C351.033 610.78 349.78 610.536 349.607 609.344L343.031 628.692L345.872 632.472L349.937 631.501L356.376 612.55Z" fill="#FFC800"/>
<g filter="url(#filter0_d_321_460)">
<path d="M75.5876 46.9681C86.4435 46.9681 95.244 37.533 95.244 25.8942C95.244 14.2554 86.4435 4.82031 75.5876 4.82031C64.7316 4.82031 55.9312 14.2554 55.9312 25.8942C55.9312 37.533 64.7316 46.9681 75.5876 46.9681Z" fill="black"/>
</g>
<path d="M75.5876 46.9681C86.4435 46.9681 95.244 37.533 95.244 25.8942C95.244 14.2554 86.4435 4.82031 75.5876 4.82031C64.7316 4.82031 55.9312 14.2554 55.9312 25.8942C55.9312 37.533 64.7316 46.9681 75.5876 46.9681Z" fill="#F5EF93"/>
<path d="M76.6796 39.9445C83.3138 39.9445 88.6919 34.1786 88.6919 27.066C88.6919 19.9534 83.3138 14.1875 76.6796 14.1875C70.0454 14.1875 64.6674 19.9534 64.6674 27.066C64.6674 34.1786 70.0454 39.9445 76.6796 39.9445Z" fill="white"/>
<g filter="url(#filter1_d_321_460)">
<path d="M26.8344 894.406C40.5044 894.406 51.586 882.531 51.586 867.883C51.586 853.234 40.5044 841.359 26.8344 841.359C13.1645 841.359 2.08276 853.234 2.08276 867.883C2.08276 882.531 13.1645 894.406 26.8344 894.406Z" fill="black"/>
</g>
<path d="M26.8344 894.406C40.5044 894.406 51.586 882.531 51.586 867.883C51.586 853.234 40.5044 841.359 26.8344 841.359C13.1645 841.359 2.08276 853.234 2.08276 867.883C2.08276 882.531 13.1645 894.406 26.8344 894.406Z" fill="#63C8B1"/>
<g filter="url(#filter2_f_321_460)">
<path d="M19.52 870.407L24.1186 874.601L34.8447 863.102" fill="black"/>
</g>
<path d="M19.52 870.407L24.1186 874.601L34.8447 863.102" stroke="white" stroke-width="4.356" stroke-linecap="round"/>
<path d="M76.6796 159.357C88.1386 159.357 97.428 149.397 97.428 137.112C97.428 124.826 88.1386 114.867 76.6796 114.867C65.2205 114.867 55.9312 124.826 55.9312 137.112C55.9312 149.397 65.2205 159.357 76.6796 159.357Z" fill="#E8F5FF"/>
<path d="M572.458 571.474C583.917 571.474 593.206 561.514 593.206 549.229C593.206 536.944 583.917 526.984 572.458 526.984C560.999 526.984 551.709 536.944 551.709 549.229C551.709 561.514 560.999 571.474 572.458 571.474Z" fill="#E8F5FF"/>
<path d="M830.175 253.021C841.634 253.021 850.924 243.061 850.924 230.776C850.924 218.491 841.634 208.531 830.175 208.531C818.716 208.531 809.427 218.491 809.427 230.776C809.427 243.061 818.716 253.021 830.175 253.021Z" fill="#E8F5FF"/>
<path d="M876.04 714.304C882.674 714.304 888.052 708.538 888.052 701.425C888.052 694.313 882.674 688.547 876.04 688.547C869.406 688.547 864.028 694.313 864.028 701.425C864.028 708.538 869.406 714.304 876.04 714.304Z" fill="#E8F5FF"/>
<path d="M57.0232 758.794C68.4823 758.794 77.7716 748.835 77.7716 736.549C77.7716 724.264 68.4823 714.305 57.0232 714.305C45.5642 714.305 36.2748 724.264 36.2748 736.549C36.2748 748.835 45.5642 758.794 57.0232 758.794Z" fill="#E8F5FF"/>
<path opacity="0.131417" d="M545.157 880.552C560.838 880.552 573.55 866.924 573.55 850.112C573.55 833.3 560.838 819.672 545.157 819.672C529.477 819.672 516.765 833.3 516.765 850.112C516.765 866.924 529.477 880.552 545.157 880.552Z" fill="url(#paint12_linear_321_460)"/>
<path d="M145.477 72.7191C153.921 72.7191 160.765 65.3807 160.765 56.3283C160.765 47.2759 153.921 39.9375 145.477 39.9375C137.034 39.9375 130.189 47.2759 130.189 56.3283C130.189 65.3807 137.034 72.7191 145.477 72.7191Z" fill="#E8F5FF"/>
<path d="M380.262 386.492C384.484 386.492 387.906 382.823 387.906 378.297C387.906 373.771 384.484 370.102 380.262 370.102C376.04 370.102 372.618 373.771 372.618 378.297C372.618 382.823 376.04 386.492 380.262 386.492Z" fill="#E8F5FF"/>
<path d="M544.065 159.36C548.287 159.36 551.709 155.69 551.709 151.164C551.709 146.638 548.287 142.969 544.065 142.969C539.844 142.969 536.421 146.638 536.421 151.164C536.421 155.69 539.844 159.36 544.065 159.36Z" fill="#E8F5FF"/>
<defs>
<filter id="filter0_d_321_460" x="53.9312" y="3.82031" width="43.3129" height="46.1484" filterUnits="userSpaceOnUse" color-interpolation-filters="sRGB">
<feFlood flood-opacity="0" result="BackgroundImageFix"/>
<feColorMatrix in="SourceAlpha" type="matrix" values="0 0 0 0 0 0 0 0 0 0 0 0 0 0 0 0 0 0 127 0" result="hardAlpha"/>
<feOffset dy="1"/>
<feGaussianBlur stdDeviation="1"/>
<feColorMatrix type="matrix" values="0 0 0 0 1 0 0 0 0 0.784314 0 0 0 0 0 0 0 0 1 0"/>
<feBlend mode="normal" in2="BackgroundImageFix" result="effect1_dropShadow_321_460"/>
<feBlend mode="normal" in="SourceGraphic" in2="effect1_dropShadow_321_460" result="shape"/>
</filter>
<filter id="filter1_d_321_460" x="0.0827637" y="840.359" width="53.5033" height="57.0469" filterUnits="userSpaceOnUse" color-interpolation-filters="sRGB">
<feFlood flood-opacity="0" result="BackgroundImageFix"/>
<feColorMatrix in="SourceAlpha" type="matrix" values="0 0 0 0 0 0 0 0 0 0 0 0 0 0 0 0 0 0 127 0" result="hardAlpha"/>
<feOffset dy="1"/>
<feGaussianBlur stdDeviation="1"/>
<feColorMatrix type="matrix" values="0 0 0 0 0.565823 0 0 0 0 0.854831 0 0 0 0 0.788014 0 0 0 1 0"/>
<feBlend mode="normal" in2="BackgroundImageFix" result="effect1_dropShadow_321_460"/>
<feBlend mode="normal" in="SourceGraphic" in2="effect1_dropShadow_321_460" result="shape"/>
</filter>
<filter id="filter2_f_321_460" x="16.02" y="859.602" width="22.3247" height="18.5" filterUnits="userSpaceOnUse" color-interpolation-filters="sRGB">
<feFlood flood-opacity="0" result="BackgroundImageFix"/>
<feBlend mode="normal" in="SourceGraphic" in2="BackgroundImageFix" result="shape"/>
<feGaussianBlur stdDeviation="1.75" result="effect1_foregroundBlur_321_460"/>
</filter>
<linearGradient id="paint0_linear_321_460" x1="420.773" y1="-13.7451" x2="159.563" y2="315.796" gradientUnits="userSpaceOnUse">
<stop stop-color="#9EAFBC"/>
<stop offset="1" stop-color="#657786"/>
</linearGradient>
<linearGradient id="paint1_linear_321_460" x1="667.235" y1="147.089" x2="1048.53" y2="586.054" gradientUnits="userSpaceOnUse">
<stop stop-color="#E8F3FC"/>
<stop offset="1" stop-color="#CCE3F7"/>
</linearGradient>
<linearGradient id="paint2_linear_321_460" x1="745.035" y1="588.574" x2="745.035" y2="404.625" gradientUnits="userSpaceOnUse">
<stop stop-color="#FFC800"/>
<stop offset="1" stop-color="#FFD950"/>
</linearGradient>
<linearGradient id="paint3_linear_321_460" x1="725.262" y1="465.6" x2="725.262" y2="673.905" gradientUnits="userSpaceOnUse">
<stop stop-color="#80B2EA"/>
<stop offset="1" stop-color="#B5D1F2"/>
</linearGradient>
<linearGradient id="paint4_linear_321_460" x1="760.885" y1="284.418" x2="890.025" y2="433.05" gradientUnits="userSpaceOnUse">
<stop stop-color="#32C1DF"/>
<stop offset="1" stop-color="#5F78EA"/>
</linearGradient>
<linearGradient id="paint5_linear_321_460" x1="880.622" y1="1065.57" x2="152.131" y2="547.785" gradientUnits="userSpaceOnUse">
<stop stop-color="#80B2EA"/>
<stop offset="1" stop-color="white"/>
</linearGradient>
<linearGradient id="paint6_linear_321_460" x1="136.908" y1="499.195" x2="535.429" y2="876.546" gradientUnits="userSpaceOnUse">
<stop stop-color="#17EAD9"/>
<stop offset="1" stop-color="#6078EA"/>
</linearGradient>
<linearGradient id="paint7_linear_321_460" x1="62.7092" y1="473.023" x2="683.042" y2="1103.59" gradientUnits="userSpaceOnUse">
<stop stop-color="#17EAD9"/>
<stop offset="1" stop-color="#6078EA"/>
</linearGradient>
<linearGradient id="paint8_linear_321_460" x1="272.839" y1="591.258" x2="272.839" y2="680.625" gradientUnits="userSpaceOnUse">
<stop stop-color="#FCE73C"/>
<stop offset="1" stop-color="#F8CA1C"/>
</linearGradient>
<linearGradient id="paint9_linear_321_460" x1="237.085" y1="695.769" x2="237.085" y2="588.68" gradientUnits="userSpaceOnUse">
<stop stop-color="#FFC800"/>
<stop offset="1" stop-color="#FFD950"/>
</linearGradient>
<linearGradient id="paint10_linear_321_460" x1="187.207" y1="672.986" x2="187.207" y2="590.617" gradientUnits="userSpaceOnUse">
<stop stop-color="#FFC800"/>
<stop offset="1" stop-color="#FFD950"/>
</linearGradient>
<linearGradient id="paint11_linear_321_460" x1="415.261" y1="692.006" x2="415.261" y2="607.383" gradientUnits="userSpaceOnUse">
<stop stop-color="#FFC800"/>
<stop offset="1" stop-color="#FFD950"/>
</linearGradient>
<linearGradient id="paint12_linear_321_460" x1="545.157" y1="821.466" x2="545.157" y2="899.784" gradientUnits="userSpaceOnUse">
<stop stop-color="#80B2EA"/>
<stop offset="1" stop-color="#B5D1F2"/>
</linearGradient>
</defs>
</svg>
