<svg width="452" height="484" viewBox="0 0 452 484" fill="none" xmlns="http://www.w3.org/2000/svg">
<ellipse cx="236.5" cy="173" rx="177.5" ry="173" fill="white"/>
<g clip-path="url(#clip0_319_391)">
<path d="M265.666 81.0917C265.666 81.0917 254.789 75.875 236.969 75.875C219.149 75.875 207.334 81.0917 207.334 81.0917C205.542 81.0918 203.762 81.3592 202.07 81.8828L124.938 105.701L133.22 144.373L157.565 146.799C160.546 147.096 163.291 148.373 165.256 150.374C167.22 152.375 168.26 154.954 168.168 157.601L164.781 263.904H308.219L304.832 157.601C304.741 154.954 305.78 152.375 307.744 150.374C309.709 148.373 312.454 147.096 315.435 146.799L339.78 144.373L348.062 105.701L270.93 81.8828C269.238 81.3592 267.458 81.0918 265.666 81.0917Z" stroke="#36BB93" stroke-width="32" stroke-linecap="round" stroke-linejoin="round"/>
<path d="M275.004 83.1406C272.746 90.6296 265.495 104.721 258.531 109.444C251.568 114.167 244.345 116.249 235.563 116.249C226.78 116.249 220.495 114.167 213.531 109.444C206.568 104.721 200.254 90.6296 197.996 83.1406" stroke="#36BB93" stroke-width="32" stroke-linecap="round" stroke-linejoin="round"/>
</g>
<path d="M62.2188 423.188H79.125C82.9375 423.188 85.8438 423.479 87.8438 424.062C90.5312 424.854 92.8333 426.26 94.75 428.281C96.6667 430.302 98.125 432.781 99.125 435.719C100.125 438.635 100.625 442.24 100.625 446.531C100.625 450.302 100.156 453.552 99.2188 456.281C98.0729 459.615 96.4375 462.312 94.3125 464.375C92.7083 465.938 90.5417 467.156 87.8125 468.031C85.7708 468.677 83.0417 469 79.625 469H62.2188V423.188ZM71.4688 430.938V461.281H78.375C80.9583 461.281 82.8229 461.135 83.9688 460.844C85.4688 460.469 86.7083 459.833 87.6875 458.938C88.6875 458.042 89.5 456.573 90.125 454.531C90.75 452.469 91.0625 449.667 91.0625 446.125C91.0625 442.583 90.75 439.865 90.125 437.969C89.5 436.073 88.625 434.594 87.5 433.531C86.375 432.469 84.9479 431.75 83.2188 431.375C81.9271 431.083 79.3958 430.938 75.625 430.938H71.4688ZM106.625 446.375C106.625 441.708 107.323 437.792 108.719 434.625C109.76 432.292 111.177 430.198 112.969 428.344C114.781 426.49 116.76 425.115 118.906 424.219C121.76 423.01 125.052 422.406 128.781 422.406C135.531 422.406 140.927 424.5 144.969 428.688C149.031 432.875 151.062 438.698 151.062 446.156C151.062 453.552 149.052 459.344 145.031 463.531C141.01 467.698 135.635 469.781 128.906 469.781C122.094 469.781 116.677 467.708 112.656 463.562C108.635 459.396 106.625 453.667 106.625 446.375ZM116.156 446.062C116.156 451.25 117.354 455.188 119.75 457.875C122.146 460.542 125.188 461.875 128.875 461.875C132.562 461.875 135.583 460.552 137.938 457.906C140.312 455.24 141.5 451.25 141.5 445.938C141.5 440.688 140.344 436.771 138.031 434.188C135.74 431.604 132.688 430.312 128.875 430.312C125.062 430.312 121.99 431.625 119.656 434.25C117.323 436.854 116.156 440.792 116.156 446.062ZM158.406 469V423.188H167.406L186.156 453.781V423.188H194.75V469H185.469L167 439.125V469H158.406ZM245.875 469H235.812L231.812 458.594H213.5L209.719 469H199.906L217.75 423.188H227.531L245.875 469ZM228.844 450.875L222.531 433.875L216.344 450.875H228.844ZM256.375 469V430.938H242.781V423.188H279.188V430.938H265.625V469H256.375ZM284.906 469V423.188H294.156V469H284.906ZM301.125 446.375C301.125 441.708 301.823 437.792 303.219 434.625C304.26 432.292 305.677 430.198 307.469 428.344C309.281 426.49 311.26 425.115 313.406 424.219C316.26 423.01 319.552 422.406 323.281 422.406C330.031 422.406 335.427 424.5 339.469 428.688C343.531 432.875 345.562 438.698 345.562 446.156C345.562 453.552 343.552 459.344 339.531 463.531C335.51 467.698 330.135 469.781 323.406 469.781C316.594 469.781 311.177 467.708 307.156 463.562C303.135 459.396 301.125 453.667 301.125 446.375ZM310.656 446.062C310.656 451.25 311.854 455.188 314.25 457.875C316.646 460.542 319.688 461.875 323.375 461.875C327.062 461.875 330.083 460.552 332.438 457.906C334.812 455.24 336 451.25 336 445.938C336 440.688 334.844 436.771 332.531 434.188C330.24 431.604 327.188 430.312 323.375 430.312C319.562 430.312 316.49 431.625 314.156 434.25C311.823 436.854 310.656 440.792 310.656 446.062ZM352.906 469V423.188H361.906L380.656 453.781V423.188H389.25V469H379.969L361.5 439.125V469H352.906Z" fill="white"/>
<defs>
<clipPath id="clip0_319_391">
<rect width="255" height="225" fill="white" transform="translate(109 60)"/>
</clipPath>
</defs>
</svg>
