<svg width="452" height="487" viewBox="0 0 452 487" fill="none" xmlns="http://www.w3.org/2000/svg">
<ellipse cx="217.5" cy="173" rx="177.5" ry="173" fill="white"/>
<g clip-path="url(#clip0_319_388)">
<path d="M294.82 156.327C298.673 162.276 301.556 168.536 303.471 175.107C305.387 181.679 306.425 188.513 306.587 195.611L306.716 208.832L218.326 255.004L129.131 218.768C129.081 213.633 129.08 208.838 129.129 204.383C129.178 199.928 129.552 195.583 130.251 191.349C130.95 187.114 132.019 182.859 133.458 178.583C134.897 174.307 137.074 169.776 139.988 164.989L110.721 153.141L111.458 228.49C114.149 229.196 116.565 230.259 118.708 231.68C120.85 233.102 122.764 234.793 124.448 236.753C126.133 238.714 127.358 240.872 128.121 243.226C128.884 245.581 129.325 248.082 129.444 250.73L129.845 291.806L76.5696 294.786L76.1681 253.711C76.143 251.143 76.535 248.638 77.344 246.196C78.153 243.753 79.3332 241.418 80.8847 239.191C82.4361 236.963 84.2684 235.063 86.3815 233.489C88.4946 231.915 90.9339 230.58 93.6995 229.483L92.8826 145.92L75.0438 138.698L216.469 65.0281L359.18 122.801L294.82 156.327ZM111.685 251.723C111.663 249.498 110.766 247.622 108.993 246.095C107.219 244.567 105.13 243.87 102.726 244.005C100.321 244.14 98.2476 245.069 96.5062 246.793C94.7647 248.517 93.9048 250.492 93.9266 252.717L94.1675 277.363L111.926 276.369L111.685 251.723ZM114.723 136.478L217.575 178.115L319.501 125.021L216.649 83.3839L114.723 136.478ZM288.859 199.685C288.794 193.096 288.041 187.016 286.598 181.446C285.155 175.875 282.648 170.236 279.076 164.528L217.754 196.471L155.876 171.421C152.872 176.555 150.611 181.905 149.092 187.469C147.573 193.034 146.796 198.729 146.76 204.553L146.791 207.633L218.146 236.52L288.859 199.685Z" fill="#36BB93"/>
</g>
<path d="M42.6875 472V426.188H76.6562V433.938H51.9375V444.094H74.9375V451.812H51.9375V464.281H77.5312V472H42.6875ZM85.3438 426.188H102.25C106.062 426.188 108.969 426.479 110.969 427.062C113.656 427.854 115.958 429.26 117.875 431.281C119.792 433.302 121.25 435.781 122.25 438.719C123.25 441.635 123.75 445.24 123.75 449.531C123.75 453.302 123.281 456.552 122.344 459.281C121.198 462.615 119.562 465.312 117.438 467.375C115.833 468.938 113.667 470.156 110.938 471.031C108.896 471.677 106.167 472 102.75 472H85.3438V426.188ZM94.5938 433.938V464.281H101.5C104.083 464.281 105.948 464.135 107.094 463.844C108.594 463.469 109.833 462.833 110.812 461.938C111.812 461.042 112.625 459.573 113.25 457.531C113.875 455.469 114.188 452.667 114.188 449.125C114.188 445.583 113.875 442.865 113.25 440.969C112.625 439.073 111.75 437.594 110.625 436.531C109.5 435.469 108.073 434.75 106.344 434.375C105.052 434.083 102.521 433.938 98.75 433.938H94.5938ZM131.562 426.188H140.812V451C140.812 454.938 140.927 457.49 141.156 458.656C141.552 460.531 142.49 462.042 143.969 463.188C145.469 464.312 147.51 464.875 150.094 464.875C152.719 464.875 154.698 464.344 156.031 463.281C157.365 462.198 158.167 460.875 158.438 459.312C158.708 457.75 158.844 455.156 158.844 451.531V426.188H168.094V450.25C168.094 455.75 167.844 459.635 167.344 461.906C166.844 464.177 165.917 466.094 164.562 467.656C163.229 469.219 161.438 470.469 159.188 471.406C156.938 472.323 154 472.781 150.375 472.781C146 472.781 142.677 472.281 140.406 471.281C138.156 470.26 136.375 468.948 135.062 467.344C133.75 465.719 132.885 464.021 132.469 462.25C131.865 459.625 131.562 455.75 131.562 450.625V426.188ZM207.188 455.156L216.156 458C214.781 463 212.49 466.719 209.281 469.156C206.094 471.573 202.042 472.781 197.125 472.781C191.042 472.781 186.042 470.708 182.125 466.562C178.208 462.396 176.25 456.708 176.25 449.5C176.25 441.875 178.219 435.958 182.156 431.75C186.094 427.521 191.271 425.406 197.688 425.406C203.292 425.406 207.844 427.062 211.344 430.375C213.427 432.333 214.99 435.146 216.031 438.812L206.875 441C206.333 438.625 205.198 436.75 203.469 435.375C201.76 434 199.677 433.312 197.219 433.312C193.823 433.312 191.062 434.531 188.938 436.969C186.833 439.406 185.781 443.354 185.781 448.812C185.781 454.604 186.823 458.729 188.906 461.188C190.99 463.646 193.698 464.875 197.031 464.875C199.49 464.875 201.604 464.094 203.375 462.531C205.146 460.969 206.417 458.51 207.188 455.156ZM265.438 472H255.375L251.375 461.594H233.062L229.281 472H219.469L237.312 426.188H247.094L265.438 472ZM248.406 453.875L242.094 436.875L235.906 453.875H248.406ZM275.938 472V433.938H262.344V426.188H298.75V433.938H285.188V472H275.938ZM304.469 472V426.188H313.719V472H304.469ZM320.688 449.375C320.688 444.708 321.385 440.792 322.781 437.625C323.823 435.292 325.24 433.198 327.031 431.344C328.844 429.49 330.823 428.115 332.969 427.219C335.823 426.01 339.115 425.406 342.844 425.406C349.594 425.406 354.99 427.5 359.031 431.688C363.094 435.875 365.125 441.698 365.125 449.156C365.125 456.552 363.115 462.344 359.094 466.531C355.073 470.698 349.698 472.781 342.969 472.781C336.156 472.781 330.74 470.708 326.719 466.562C322.698 462.396 320.688 456.667 320.688 449.375ZM330.219 449.062C330.219 454.25 331.417 458.188 333.812 460.875C336.208 463.542 339.25 464.875 342.938 464.875C346.625 464.875 349.646 463.552 352 460.906C354.375 458.24 355.562 454.25 355.562 448.938C355.562 443.688 354.406 439.771 352.094 437.188C349.802 434.604 346.75 433.312 342.938 433.312C339.125 433.312 336.052 434.625 333.719 437.25C331.385 439.854 330.219 443.792 330.219 449.062ZM372.469 472V426.188H381.469L400.219 456.781V426.188H408.812V472H399.531L381.062 442.125V472H372.469Z" fill="white"/>
<defs>
<clipPath id="clip0_319_388">
<rect width="284.58" height="262.898" fill="white" transform="matrix(0.998439 -0.0558609 0.00977481 0.999952 74 31.8984)"/>
</clipPath>
</defs>
</svg>
