<svg width="452" height="487" viewBox="0 0 452 487" fill="none" xmlns="http://www.w3.org/2000/svg">
<ellipse cx="226.5" cy="173" rx="177.5" ry="173" fill="white"/>
<path d="M208.101 209.857L244.185 210.217L244.422 183.992L274.492 184.292L274.777 152.822L244.707 152.522L244.944 126.297L208.86 125.937L208.623 152.162L178.553 151.862L178.268 183.332L208.338 183.632L208.101 209.857ZM225.526 278.223C197.716 271.826 174.841 257.652 156.9 235.7C138.951 213.756 130.096 189.496 130.337 162.921L130.915 98.9313L227.424 68.4209L323.363 100.851L322.784 164.841C322.544 191.416 313.256 215.495 294.921 237.077C276.578 258.667 253.446 272.382 225.526 278.223ZM225.725 256.194C246.626 250.632 263.97 239.265 277.759 222.093C291.547 204.92 298.537 185.756 298.728 164.601L299.177 115.035L227.222 90.7124L154.841 113.595L154.392 163.161C154.201 184.316 160.843 203.616 174.318 221.061C187.793 238.505 204.929 250.216 225.725 256.194Z" fill="#36BB93"/>
<path d="M103.219 472V426.188H112.469V444.219H130.594V426.188H139.844V472H130.594V451.969H112.469V472H103.219ZM149.438 472V426.188H183.406V433.938H158.688V444.094H181.688V451.812H158.688V464.281H184.281V472H149.438ZM233.438 472H223.375L219.375 461.594H201.062L197.281 472H187.469L205.312 426.188H215.094L233.438 472ZM216.406 453.875L210.094 436.875L203.906 453.875H216.406ZM238.625 472V426.562H247.875V464.281H270.875V472H238.625ZM283.062 472V433.938H269.469V426.188H305.875V433.938H292.312V472H283.062ZM311.906 472V426.188H321.156V444.219H339.281V426.188H348.531V472H339.281V451.969H321.156V472H311.906Z" fill="white"/>
</svg>
