<svg width="452" height="487" viewBox="0 0 452 487" fill="none" xmlns="http://www.w3.org/2000/svg">
<ellipse cx="227.5" cy="173" rx="177.5" ry="173" fill="white"/>
<path d="M325.969 114.844H288.141V108.438C288.113 102.497 285.004 96.8065 279.493 92.6062C273.981 88.4058 266.513 86.0367 258.719 86.0156H208.281C200.487 86.0367 193.019 88.4058 187.507 92.6062C181.996 96.8065 178.887 102.497 178.859 108.438V114.844H141.031C135.466 114.865 130.137 116.559 126.201 119.558C122.266 122.557 120.043 126.618 120.016 130.859V233.359C120.043 237.6 122.266 241.662 126.201 244.661C130.137 247.66 135.466 249.354 141.031 249.375H325.969C331.534 249.354 336.863 247.66 340.799 244.661C344.734 241.662 346.957 237.6 346.984 233.359V130.859C346.957 126.618 344.734 122.557 340.799 119.558C336.863 116.559 331.534 114.865 325.969 114.844ZM204.078 108.438C204.078 107.588 204.521 106.773 205.309 106.173C206.097 105.572 207.167 105.234 208.281 105.234H258.719C259.833 105.234 260.903 105.572 261.691 106.173C262.479 106.773 262.922 107.588 262.922 108.438V114.844H204.078V108.438ZM321.766 134.062V162.25C294.557 173.186 264.261 178.904 233.5 178.906C202.741 178.894 172.447 173.177 145.234 162.25V134.062H321.766ZM145.234 230.156V183.631C172.969 193.19 203.06 198.132 233.5 198.125C263.94 198.132 294.031 193.19 321.766 183.631V230.156H145.234ZM208.281 159.688C208.281 157.139 209.61 154.695 211.974 152.893C214.339 151.091 217.546 150.078 220.891 150.078H246.109C249.454 150.078 252.661 151.091 255.026 152.893C257.39 154.695 258.719 157.139 258.719 159.688C258.719 162.236 257.39 164.68 255.026 166.482C252.661 168.284 249.454 169.297 246.109 169.297H220.891C217.546 169.297 214.339 168.284 211.974 166.482C209.61 164.68 208.281 162.236 208.281 159.688Z" fill="#36BB93"/>
<path d="M181.344 426.188H190.562V455.188C190.562 458.979 190.229 461.896 189.562 463.938C188.667 466.604 187.042 468.75 184.688 470.375C182.333 471.979 179.229 472.781 175.375 472.781C170.854 472.781 167.375 471.521 164.938 469C162.5 466.458 161.271 462.74 161.25 457.844L169.969 456.844C170.073 459.469 170.458 461.323 171.125 462.406C172.125 464.052 173.646 464.875 175.688 464.875C177.75 464.875 179.208 464.292 180.062 463.125C180.917 461.938 181.344 459.49 181.344 455.781V426.188ZM198.562 449.375C198.562 444.708 199.26 440.792 200.656 437.625C201.698 435.292 203.115 433.198 204.906 431.344C206.719 429.49 208.698 428.115 210.844 427.219C213.698 426.01 216.99 425.406 220.719 425.406C227.469 425.406 232.865 427.5 236.906 431.688C240.969 435.875 243 441.698 243 449.156C243 456.552 240.99 462.344 236.969 466.531C232.948 470.698 227.573 472.781 220.844 472.781C214.031 472.781 208.615 470.708 204.594 466.562C200.573 462.396 198.562 456.667 198.562 449.375ZM208.094 449.062C208.094 454.25 209.292 458.188 211.688 460.875C214.083 463.542 217.125 464.875 220.812 464.875C224.5 464.875 227.521 463.552 229.875 460.906C232.25 458.24 233.438 454.25 233.438 448.938C233.438 443.688 232.281 439.771 229.969 437.188C227.677 434.604 224.625 433.312 220.812 433.312C217 433.312 213.927 434.625 211.594 437.25C209.26 439.854 208.094 443.792 208.094 449.062ZM250.281 426.188H268.594C272.219 426.188 274.917 426.344 276.688 426.656C278.479 426.948 280.073 427.573 281.469 428.531C282.885 429.49 284.062 430.771 285 432.375C285.938 433.958 286.406 435.74 286.406 437.719C286.406 439.865 285.823 441.833 284.656 443.625C283.51 445.417 281.948 446.76 279.969 447.656C282.76 448.469 284.906 449.854 286.406 451.812C287.906 453.771 288.656 456.073 288.656 458.719C288.656 460.802 288.167 462.833 287.188 464.812C286.229 466.771 284.906 468.344 283.219 469.531C281.552 470.698 279.49 471.417 277.031 471.688C275.49 471.854 271.771 471.958 265.875 472H250.281V426.188ZM259.531 433.812V444.406H265.594C269.198 444.406 271.438 444.354 272.312 444.25C273.896 444.062 275.135 443.521 276.031 442.625C276.948 441.708 277.406 440.51 277.406 439.031C277.406 437.615 277.01 436.469 276.219 435.594C275.448 434.698 274.292 434.156 272.75 433.969C271.833 433.865 269.198 433.812 264.844 433.812H259.531ZM259.531 452.031V464.281H268.094C271.427 464.281 273.542 464.188 274.438 464C275.812 463.75 276.927 463.146 277.781 462.188C278.656 461.208 279.094 459.906 279.094 458.281C279.094 456.906 278.76 455.74 278.094 454.781C277.427 453.823 276.458 453.125 275.188 452.688C273.938 452.25 271.208 452.031 267 452.031H259.531Z" fill="white"/>
</svg>
