<svg width="259" height="244" viewBox="0 0 259 244" fill="none" xmlns="http://www.w3.org/2000/svg">
<path d="M96.2297 193.592C149.376 193.592 192.459 150.263 192.459 96.8154C192.459 43.3673 149.376 0.0390625 96.2297 0.0390625C43.0835 0.0390625 0 43.3673 0 96.8154C0 150.263 43.0835 193.592 96.2297 193.592Z" fill="#36BB93"/>
<path d="M96.2302 112.368C118.058 112.368 135.753 94.5729 135.753 72.621C135.753 50.6691 118.058 32.8735 96.2302 32.8735C74.4023 32.8735 56.7073 50.6691 56.7073 72.621C56.7073 94.5729 74.4023 112.368 96.2302 112.368Z" fill="white"/>
<path d="M94.4001 243.778C132.381 243.778 163.171 214.367 163.171 178.087C163.171 141.807 132.381 112.396 94.4001 112.396C56.4187 112.396 25.6287 141.807 25.6287 178.087C25.6287 214.367 56.4187 243.778 94.4001 243.778Z" fill="white"/>
<path d="M210 87L232.647 110L254 87" stroke="#36BB93" stroke-width="9" stroke-linecap="round"/>
</svg>
